<svg xmlns="http://www.w3.org/2000/svg" width="27" height="31.5" viewBox="0 0 27 31.5">
  <g id="generate-pdf" transform="translate(-4.5 -2.25)">
    <path id="Trazado_3714" data-name="Trazado 3714" d="M27,27v4.5H9V27H6.75v4.5A2.25,2.25,0,0,0,9,33.75H27a2.25,2.25,0,0,0,2.25-2.25V27Z" fill="#262626"/>
    <path id="Trazado_3715" data-name="Trazado 3715" d="M23.625,23.625l-1.591-1.591-2.909,2.91V15.75h-2.25v9.194l-2.909-2.909-1.591,1.59L18,29.25Z" fill="#262626"/>
    <path id="Trazado_3716" data-name="Trazado 3716" d="M31.5,4.5V2.25H24.75V13.5H27V9h3.375V6.75H27V4.5Z" fill="#262626"/>
    <path id="Trazado_3717" data-name="Trazado 3717" d="M19.125,13.5h-4.5V2.25h4.5A3.378,3.378,0,0,1,22.5,5.625v4.5A3.378,3.378,0,0,1,19.125,13.5Zm-2.25-2.25h2.25a1.126,1.126,0,0,0,1.125-1.125v-4.5A1.126,1.126,0,0,0,19.125,4.5h-2.25Z" fill="#262626"/>
    <path id="Trazado_3718" data-name="Trazado 3718" d="M10.125,2.25H4.5V13.5H6.75V10.125h3.375a2.253,2.253,0,0,0,2.25-2.25V4.5a2.252,2.252,0,0,0-2.25-2.25ZM6.75,7.875V4.5h3.375V7.875Z" fill="#262626"/>
  </g>
</svg>
