<svg xmlns="http://www.w3.org/2000/svg" width="24.783" height="36.017" viewBox="308.233 4111.983 24.783 36.017"><path d="M328.5 4148H315c-.396 0-.863-.261-1.403-.784a7.68 7.68 0 0 1-.408-.429 12.18 12.18 0 0 1-1.35-1.867 14.676 14.676 0 0 1-.531-.981c-.539-1.09-.808-1.998-.808-2.724-.023-.543-.204-1.453-.543-2.728a45.66 45.66 0 0 0-.037-.137 92.604 92.604 0 0 1-1.032-4.28 130.769 130.769 0 0 1-.075-.343 26.046 26.046 0 0 1-.439-2.665 20.218 20.218 0 0 1-.124-2.187v-1.125a2.284 2.284 0 0 1 .183-.924 2.198 2.198 0 0 1 .467-.676c.433-.433.965-.65 1.597-.65a1.769 1.769 0 0 1 .003 0c.515 0 .972.158 1.371.475a2.223 2.223 0 0 1 .57.661 2.105 2.105 0 0 1 .203.517 22.91 22.91 0 0 0 .063-.68c.016-.206.027-.399.034-.578a10.279 10.279 0 0 0 .008-.394 109.654 109.654 0 0 1 .054-3.474 99.903 99.903 0 0 1 .016-.481c.046-1.257.137-2.662.274-4.214a113.718 113.718 0 0 1 .007-.075c.14-1.582.376-2.854.705-3.816.215-.628.46-1.05.733-1.268A.728.728 0 0 1 315 4112a2.318 2.318 0 0 1 .767.118c.462.161.795.489.999.982a2.823 2.823 0 0 1 .15.5c.223 1.067.334 3.533.334 7.4 0 .7.047 1.32.141 1.86a6.764 6.764 0 0 0 .088.425 6.624 6.624 0 0 0 .137.49c.102.315.216.565.343.752a1.47 1.47 0 0 0 .083.112 4.126 4.126 0 0 0 .29.318c.102.1.205.189.307.265a2.328 2.328 0 0 0 .071.05 2.184 2.184 0 0 0 .169.105.811.811 0 0 0 .375.123h.246a2.284 2.284 0 0 1 .183-.924 2.198 2.198 0 0 1 .467-.676 2.165 2.165 0 0 1 1.568-.65h.03a1.769 1.769 0 0 1 .002 0c1.5 0 2.25 1.5 2.25 4.5a2.284 2.284 0 0 1 .183-.924 2.198 2.198 0 0 1 .467-.676 2.144 2.144 0 0 1 1.55-.65h.03a1.702 1.702 0 0 1 .002 0 2.219 2.219 0 0 1 1.6.65 2.135 2.135 0 0 1 .667 1.54 2.668 2.668 0 0 1 .001.06v2.25a2.192 2.192 0 0 1 .65-1.582 2.12 2.12 0 0 1 1.538-.668 2.574 2.574 0 0 1 .044 0 2.18 2.18 0 0 1 1.58.647 2.689 2.689 0 0 1 .02.021 2.273 2.273 0 0 1 .52.778 2.18 2.18 0 0 1 .148.804v10.125a18.332 18.332 0 0 1-.062 1.538 13.57 13.57 0 0 1-.184 1.38 11.616 11.616 0 0 1-.188.834 6.418 6.418 0 0 1-.462 1.258 9.159 9.159 0 0 1-.477.829 7.299 7.299 0 0 1-.402.56 4.638 4.638 0 0 1-.349.394c-.2.2-.4.356-.6.467-.306.17-.59.307-.853.412a5.359 5.359 0 0 1-.026.01 5.29 5.29 0 0 1-.232.085c-.146.05-.272.084-.378.102a1.307 1.307 0 0 1-.04.006h-.247Z" fill-rule="evenodd" data-name="handup"/></svg>