<svg xmlns="http://www.w3.org/2000/svg" width="36" height="36" viewBox="296.983 6174.983 36 36"><path d="M328.47 6210.972h-13.487a1.208 1.208 0 0 1-.494-.119c-.386-.173-.824-.538-1.315-1.093a12.213 12.213 0 0 1-1.348-1.866 14.72 14.72 0 0 1-.53-.98c-.51-1.027-.778-1.894-.806-2.598a3.061 3.061 0 0 1-.003-.123c-.022-.543-.204-1.451-.543-2.725a45.588 45.588 0 0 0-.037-.137 93.879 93.879 0 0 1-1.106-4.62c-.374-1.733-.561-3.348-.562-4.846v-1.124c0-.632.217-1.165.65-1.598a2.168 2.168 0 0 1 1.568-.65 2.743 2.743 0 0 1 .03 0c.515 0 .972.158 1.37.474a2.218 2.218 0 0 1 .577.672 2.114 2.114 0 0 1 .196.505c.05-.474.083-.893.097-1.257a10.273 10.273 0 0 0 .008-.394 109.43 109.43 0 0 1 .054-3.47 99.725 99.725 0 0 1 .016-.481 70.285 70.285 0 0 1 .104-2.012c.046-.697.102-1.43.17-2.199a113.567 113.567 0 0 1 .007-.074c.092-1.038.225-1.941.398-2.711a10.626 10.626 0 0 1 .304-1.1c.327-.96.725-1.44 1.194-1.44 1.053 0 1.691.532 1.914 1.598.223 1.065.334 3.53.334 7.393 0 .866.076 1.616.228 2.248.134.556.295.976.483 1.26a1.59 1.59 0 0 0 .079.11 4.066 4.066 0 0 0 .271.31c.097.1.194.188.291.263a2.18 2.18 0 0 0 .105.077c.186.127.344.201.473.222a.453.453 0 0 0 .071.006h.246c0-.632.217-1.165.65-1.598a2.168 2.168 0 0 1 1.568-.65 2.743 2.743 0 0 1 .03 0c1.499 0 2.248 1.498 2.248 4.496 0-.632.217-1.165.65-1.598a2.168 2.168 0 0 1 1.568-.65 2.743 2.743 0 0 1 .03 0 2.28 2.28 0 0 1 .923.183 2.194 2.194 0 0 1 .675.467 2.168 2.168 0 0 1 .65 1.568 2.743 2.743 0 0 1 0 .03v2.248a2.28 2.28 0 0 1 .183-.923 2.194 2.194 0 0 1 .467-.675 2.168 2.168 0 0 1 1.568-.65 2.743 2.743 0 0 1 .03 0 2.28 2.28 0 0 1 .923.183 2.194 2.194 0 0 1 .675.467 2.168 2.168 0 0 1 .65 1.568 2.743 2.743 0 0 1 0 .03v10.115c0 1.077-.088 2.049-.263 2.915a14.177 14.177 0 0 1-.193.833c-.07.261-.144.502-.222.722a6.08 6.08 0 0 1-.217.535 6.43 6.43 0 0 1-.545.954 5.496 5.496 0 0 1-.333.433 6.304 6.304 0 0 1-.311.34 4.2 4.2 0 0 1-.327.299 2.666 2.666 0 0 1-.31.22 4.726 4.726 0 0 1-.839.402 4.377 4.377 0 0 1-.057.02c-.305.104-.51.163-.615.176a3.107 3.107 0 0 1-.104.01 1.753 1.753 0 0 1-.148.008 1.117 1.117 0 0 1-.011 0Zm-19.106-29.221h-5.62v4.215c-.3.279-.552.341-.754.187a.533.533 0 0 1-.054-.047l-5.76-5.058a.589.589 0 0 1-.147-.234.596.596 0 0 1-.029-.187.574.574 0 0 1 .17-.416.713.713 0 0 1 .006-.005l5.76-5.093a.454.454 0 0 1 .138-.086c.186-.072.41.003.67.226v4.25h5.62a1.076 1.076 0 0 1 .78.323 1.362 1.362 0 0 1 .01.01 1.141 1.141 0 0 1 .26.39 1.093 1.093 0 0 1 .074.4c0 .3-.107.56-.324.78a1.372 1.372 0 0 1-.01.01 1.147 1.147 0 0 1-.377.256 1.083 1.083 0 0 1-.413.079Zm16.858 4.215v-4.215h-5.62a1.076 1.076 0 0 1-.78-.324 1.362 1.362 0 0 1-.01-.01 1.141 1.141 0 0 1-.26-.39 1.093 1.093 0 0 1-.074-.4c0-.304.11-.568.334-.79a1.147 1.147 0 0 1 .377-.256 1.083 1.083 0 0 1 .413-.078h5.62v-4.25c.142-.122.273-.2.394-.233a.418.418 0 0 1 .414.093l5.725 5.093a.645.645 0 0 1 .129.141.5.5 0 0 1 .082.28c0 .163-.07.303-.21.42l-5.726 5.059a.476.476 0 0 1-.117.087c-.176.092-.387.033-.632-.175a1.845 1.845 0 0 1-.059-.052Z" fill-rule="evenodd" data-name="handswipe"/></svg>