<svg xmlns="http://www.w3.org/2000/svg" xmlns:xlink="http://www.w3.org/1999/xlink" width="219" height="69.507" viewBox="0 0 219 69.507">
  <defs>
    <clipPath id="clip-path">
      <rect id="Rectángulo_39" data-name="Rectángulo 39" width="219" height="69.507"/>
    </clipPath>
  </defs>
  <g id="Grupo_55" data-name="Grupo 55" clip-path="url(#clip-path)">
    <path id="Trazado_117" data-name="Trazado 117" d="M8.74,63.333h8.529V6.266H8.74ZM.031,58.339V10.548A9.4,9.4,0,0,1,1.571,5.5a12.091,12.091,0,0,1,4.04-3.975A9.632,9.632,0,0,1,10.659.007h4.8A9.412,9.412,0,0,1,20.6,1.589a12.084,12.084,0,0,1,3.975,4.124,10.1,10.1,0,0,1,1.494,5.19v48.17a9.91,9.91,0,0,1-1.44,5.223A10.781,10.781,0,0,1,15.463,69.5H10.282A8.762,8.762,0,0,1,5.2,67.875a11.975,11.975,0,0,1-3.766-4.232,11.046,11.046,0,0,1-1.405-5.3" transform="translate(0.02 0.004)"/>
    <rect id="Rectángulo_34" data-name="Rectángulo 34" width="5.697" height="69.496" transform="translate(0 0.012)"/>
    <rect id="Rectángulo_35" data-name="Rectángulo 35" width="11.859" height="5.132" transform="translate(2.194 0.012)"/>
    <rect id="Rectángulo_36" data-name="Rectángulo 36" width="11.859" height="5.066" transform="translate(2.849 64.441)"/>
    <path id="Trazado_118" data-name="Trazado 118" d="M29.334,63.333h8.529V6.266H29.334Zm-8.709-4.994V10.548A9.4,9.4,0,0,1,22.165,5.5a12.091,12.091,0,0,1,4.04-3.975A9.632,9.632,0,0,1,31.253.007h4.8a9.416,9.416,0,0,1,5.135,1.582,12.084,12.084,0,0,1,3.975,4.124,10.1,10.1,0,0,1,1.494,5.19v48.17a9.91,9.91,0,0,1-1.44,5.223A10.781,10.781,0,0,1,36.057,69.5H30.876A8.759,8.759,0,0,1,25.8,67.875a11.943,11.943,0,0,1-3.766-4.232,11.046,11.046,0,0,1-1.405-5.3" transform="translate(13.355 0.004)"/>
    <path id="Trazado_119" data-name="Trazado 119" d="M96.539,59.068V10.529a9.487,9.487,0,0,1,1.516-5.058,11.9,11.9,0,0,1,4-3.956A9.742,9.742,0,0,1,107.164.008H122.4V21.691h-8.621V6.267h-8.528v25.5h8.528v5.989h-8.528V63.334h8.528V47.719H122.4V69.5H107.164a9.9,9.9,0,0,1-5.134-1.473,11.568,11.568,0,0,1-3.985-3.9,9.468,9.468,0,0,1-1.506-5.064" transform="translate(62.511 0.005)"/>
    <path id="Trazado_120" data-name="Trazado 120" d="M55.9,63.14H50V6.073h0V.015l-.157.038A10.365,10.365,0,0,0,46.8,1.321a11.851,11.851,0,0,0-4,3.954,9.47,9.47,0,0,0-1.517,5.058V58.874A9.467,9.467,0,0,0,42.8,63.937a11.582,11.582,0,0,0,3.985,3.9,9.892,9.892,0,0,0,5.135,1.475H64.523v-13.1H55.9Z" transform="translate(26.736 0.009)"/>
    <path id="Trazado_121" data-name="Trazado 121" d="M125.285,31.39c-2.125,0-.928.526-2.636,1.573a10.931,10.931,0,0,0-3.985,4.262,12.323,12.323,0,0,0-1.43,5.882v9.847a13.77,13.77,0,0,1,1.04-1.087,13.464,13.464,0,0,1,7.671-3.483V37.377h6.71a9.525,9.525,0,0,0,5.119-1.516,11.43,11.43,0,0,0,3.875-3.975,9.986,9.986,0,0,0,1.44-5.114V10.251a9.457,9.457,0,0,0-1.471-5.1A10.894,10.894,0,0,0,137.685,1.4,10.432,10.432,0,0,0,132.475,0H117.234V12.964h8.71V5.987h8.526v25.4Z" transform="translate(75.912 -0.001)"/>
    <rect id="Rectángulo_37" data-name="Rectángulo 37" width="8.707" height="66.191" transform="translate(193.145 2.939)"/>
    <path id="Trazado_122" data-name="Trazado 122" d="M131.9,56.486,123.75,20.648l6.323-1.1,8.753,36.937Z" transform="translate(80.13 12.658)"/>
    <rect id="Rectángulo_38" data-name="Rectángulo 38" width="8.707" height="69.13" transform="translate(128.834 0.007)"/>
    <path id="Trazado_123" data-name="Trazado 123" d="M91.277,56.491,83.484,22.064l5.967-2.511L98.2,56.491Z" transform="translate(54.058 12.661)"/>
    <path id="Trazado_124" data-name="Trazado 124" d="M91.392,0,83.484,34.723l6.083,2.219L98.32,0Z" transform="translate(54.058 0.002)"/>
    <path id="Trazado_125" data-name="Trazado 125" d="M58.527,59.068V10.529a9.487,9.487,0,0,1,1.516-5.058,11.89,11.89,0,0,1,4-3.956A9.732,9.732,0,0,1,69.152.008H84.385V21.691H75.763V6.267H67.236V63.334h8.528V47.719h8.621V69.5H69.152a9.9,9.9,0,0,1-5.134-1.473,11.568,11.568,0,0,1-3.985-3.9,9.468,9.468,0,0,1-1.506-5.064" transform="translate(37.897 0.005)"/>
  </g>
</svg>
