<svg id="ffb9efd4-cab9-4a5f-9c38-378084034deb" data-name="Capa 1" xmlns="http://www.w3.org/2000/svg" viewBox="0 0 31.52 31.52"><defs><style>.aac80f79-0b51-4aaf-bf31-9ecc8f788435{fill:#fff;stroke:#000;stroke-miterlimit:10;stroke-width:0.34px;}.ffc205d2-3543-4fd8-a8ec-cd6e1f78cd2c{fill:#a7a7a7;}</style></defs><rect class="aac80f79-0b51-4aaf-bf31-9ecc8f788435" x="0.17" y="0.17" width="31.18" height="31.18"/><path class="ffc205d2-3543-4fd8-a8ec-cd6e1f78cd2c" d="M24.35,14.33c-.43.09-.86.16-1.28.28-.05,0-.07.3,0,.43s.2.2.3.3l0,.16a5.68,5.68,0,0,0-1.18-.3c-.4,0-.8.12-1.21.12.46-.28,1.24.11,1.34-.83L22,14.25s.06-.09.08-.09c.43,0,.51-.16.26-.53s-.09-.58.33-.6a2.34,2.34,0,0,1,1.71.32Z"/><path class="ffc205d2-3543-4fd8-a8ec-cd6e1f78cd2c" d="M30.87,30.84l-.54,0c0-.31,0-.6-.09-1l.63-.15Z"/><path class="ffc205d2-3543-4fd8-a8ec-cd6e1f78cd2c" d="M30.87,12.91c-.61-.29-.16.27-.32.38h-1l.67-.62a.75.75,0,0,0-.07-.12h.6l-.36-.28,0-.09.42.07Z"/><path class="ffc205d2-3543-4fd8-a8ec-cd6e1f78cd2c" d="M30.87,20l-.9-.34.72-.13a1.71,1.71,0,0,1-.24-.49c0-.07.27-.16.42-.24Z"/><path class="ffc205d2-3543-4fd8-a8ec-cd6e1f78cd2c" d="M30.87,22.09c-.35.53-.39.54-.67.28l.67-1.15Z"/><path class="ffc205d2-3543-4fd8-a8ec-cd6e1f78cd2c" d="M28.9.66s0,.15,0,.15a14.16,14.16,0,0,1-1.59.11c-.19,0-.37-.17-.56-.26Z"/><path class="ffc205d2-3543-4fd8-a8ec-cd6e1f78cd2c" d="M2.63,21.38,2,21.62c0-.15-.08-.3-.15-.6l-.58.66a.8.8,0,0,0,.08.16c.49-.14,1,.3,1.55-.15l-.29-.31M.7,23l.22-.15-.21-.14c.13-.16.26-.3.39-.45C.31,21.78.87,21.07.66,20.5l.83.06c-.25-.55-1-.73-.7-1.36a3.42,3.42,0,0,1,.44-.49,1.51,1.51,0,0,1,.6-.34,9.75,9.75,0,0,1,1.23,0c-.17.23-.27.35-.42.54l1.58,1.89.09-.15h.91a8.08,8.08,0,0,0,.85-.05c.36,0,.71-.09,1.07-.13a1.36,1.36,0,0,0,0,.2l-.6,0v.13a4.32,4.32,0,0,1,.94-.06,2.12,2.12,0,0,1,.93.55c-.24.07-.51.25-.72.19-.73-.22-1.15.25-1.7.67l.47.06v.09H5.36a.3.3,0,0,1,0-.1l.79-.3c-.18-.17-.3-.38-.47-.44-.49-.16-.31-.38-.11-.67-.28.11-.73-.17-.8.41a.73.73,0,0,1-.31,0c-.41-.05-.81-.12-1.22-.18a1.62,1.62,0,0,0,0,.19l.67.31c-.4.28-.11.83.7,1.25-.21.36-.38.74-.62,1.07a.55.55,0,0,0,0,.83c0,.35-.06.62-.09,1,.66,0,1.29.15,1.77-.5l.9.47v.19L4.91,26a3.78,3.78,0,0,0-.57.1.68.68,0,0,0,0,.14L3,25.34c0-.09,0-.12,0-.12h.29c.05-.25.11-.48.17-.75H2.77l0-.13L3.52,24l-.89-.49.24-.61H2.05q-.34,0-.69.09l-.61.13c0-.06,0-.12-.05-.18"/><path class="ffc205d2-3543-4fd8-a8ec-cd6e1f78cd2c" d="M24.23,30.46l1-.19-.43-.7c-.2.32-.34.55-.54.89m.82-2c0,.08-.08.2-.05.25.37.52.76,1,1.14,1.54-.25,0-.63.05-.56.5h-2l.25-.19c-.36-.58-.7-1.15-1.07-1.71-.06-.08-.25-.1-.38-.09a6.77,6.77,0,0,0-.83.14l.31-.48c-.47-.41-.42-1.29-1.27-1.4,0-.17.07-.34.1-.5-.53-.29-.78-.2-1.27.45-.38-.41-.38-.55-.11-.75-.34-.33-.7-.66-1.06-1,.43-.24.75-.35.8.21,0,.11.08.28.16.31.65.28,1.3.55,2,.77a5,5,0,0,0,1,.11v.2l-.52.09.16.51,1.24-.1c-.09-.58.38-.53.93-.7-.11.47-.2.83-.3,1.26l.66-.08a1.94,1.94,0,0,1,0-.2l.32.55a3.23,3.23,0,0,1,.46-.79c.09-.09.37,0,.61.07-.27.4-.47.71-.67,1a4.43,4.43,0,0,0-1-.08c-.59.09,0,.66-.27.92l1.29-.84"/><path class="ffc205d2-3543-4fd8-a8ec-cd6e1f78cd2c" d="M9.17,28.23c.45,0,.85.05,1.05-.42,0-.09.29-.1.44-.14a.83.83,0,0,1,0,.15l-.43.23c.07.13.13.25.19.38h-.7s0,.07,0,.11l.48.16v.15L9,28.78l-.35-.69c-.24.19-.42.35-.61.51l.57.19a.24.24,0,0,0,0,.08l-1.68.29c.15.26.23.4.35.59l-1-.15c.44-1-.77-.42-.76-1l-.67.28a1.67,1.67,0,0,0-.08-.2l2.05-.58-.83-.09,1.69-1.16-.25-.18c.35-.08.72-.3,1-.21a1.77,1.77,0,0,1,.84.78c.12.24,0,.61,0,.95"/><path class="ffc205d2-3543-4fd8-a8ec-cd6e1f78cd2c" d="M.69,29c.13-.56-.26-1.31.3-2l.89,1.08A2.44,2.44,0,0,1,4,28.14c0,.09-.07.23-.14.25-.43.14-.37.35-.2.7a1.23,1.23,0,0,1-.11.78c0,.08-.29.09-.45.14-.06-.42-.11-.75-.18-1.18l-1,.44,1.24,1.4a3.06,3.06,0,0,1-.55.16c-.31,0-.62,0-.93,0-.85,0-1.07-.25-1-1.2.12.14.2.24.28.35a.67.67,0,0,0,.33-1c0-.08-.39,0-.66,0"/><path class="ffc205d2-3543-4fd8-a8ec-cd6e1f78cd2c" d="M8.59,29.87l-1-.08c0-.06,0-.13,0-.2A1.12,1.12,0,0,1,8,29.42c.6,0,1.2,0,1.8,0,.13,0,.37-.13.38-.2,0-.49.32-.55.69-.5s.6.13.89.2a.94.94,0,0,1,0,.16c-.27.09-.53.19-.8.26s-.5,0-.45.37c0,.09-.3.23-.48.3a4.28,4.28,0,0,1-.73.16l2.05.32c-.29.34-.34.34-2.1.29-.71,0-1.42,0-2.13,0H4.87l.29-.17-.41-.11.61-.35-.91-.06c.11-.59.34-.62,1.81-.27l-.4.17c0,.21,0,.42,0,.68l.84-.15-.39-.14,2.24-.57"/><path class="ffc205d2-3543-4fd8-a8ec-cd6e1f78cd2c" d="M12.74,18.93l-.33-.06L13,18.6c-.31-.63-.91-.38-1.5-.53l.87-.27c.61.64,1.42,0,2.11.31l-.83.11v.15l.37.08.52,1.18H11.16l-.05.16.77.34c-.36.26-.64.3-.82-.15l-1,.48c-.16-.69.18-.55.48-.48.37-.62.22-.82-.58-.89l1.24-.81c.14.52.32.25.51-.18l.09.29-.56.52h.82l-.57.29c.63.4.71.38,1.23-.27"/><path class="ffc205d2-3543-4fd8-a8ec-cd6e1f78cd2c" d="M6.44,23.63l-.16.27L6,23.51c.06-.05.08-.08.11-.08.6-.13,1.22.31,1.82,0,0,0,.23.05.27.13.3.56.61.21.94,0a5.93,5.93,0,0,1,.63-.26c0-.06-.08-.13-.15-.22l.85.1,0-.11-.4-.38a2.68,2.68,0,0,1,2.34.52l-1.25.1.35.68c.43-.14.83-.29,1.25.05H11.45a.22.22,0,0,1-.16-.05c-.56-.72-1-.05-1.41.17l-.3.16L9.35,24l-2.91-.34"/><path class="ffc205d2-3543-4fd8-a8ec-cd6e1f78cd2c" d="M6.87,13l-1.24.16v.1l.43.16c-.56.28-.56.28-.91-.28-.13-.21-.71-.17-1,.06-.55.45-.58.41-1-.13-.16-.2-.52-.22-.79-.32l-.07.12.28.26H1.87l-.65-.75a2.49,2.49,0,0,1,1.74,0,6.43,6.43,0,0,0,1.51.31c.79.08,1.59.09,2.39.13,0,0,0,.1,0,.14"/><path class="ffc205d2-3543-4fd8-a8ec-cd6e1f78cd2c" d="M4.23,24.27A8.24,8.24,0,0,1,5.77,24c.28,0,.55.3.83.45s.49.21.74.31l.08-.12-.15-.31H9.68a7,7,0,0,1-1.42.88A3,3,0,0,1,7,25.11C6.48,25,6,24.9,5.53,24.78l.14-.37H4.24v-.14"/><path class="ffc205d2-3543-4fd8-a8ec-cd6e1f78cd2c" d="M4.55,19.88a4.28,4.28,0,0,0-.32-.94,3,3,0,0,0-.67-.58.54.54,0,0,1,.8-.32c.38.15.79.25,1.22.39-.31.79.35.67.77.78-.13.33-1.25.71-1.8.67"/><path class="ffc205d2-3543-4fd8-a8ec-cd6e1f78cd2c" d="M21.45,14.67l-1.33.55.52.23a.75.75,0,0,0-.07.12H18.3a3.3,3.3,0,0,1,.11-.34l-.48-.11c.07-.07.09-.14.13-.15a18.24,18.24,0,0,1,1.88-.44,8.12,8.12,0,0,1,1.51.14"/><path class="ffc205d2-3543-4fd8-a8ec-cd6e1f78cd2c" d="M7,9.64c-.75-.42-1.58-.22-2.12-.84h3l-.51.43.73.69L6.05,9.73s0-.06,0-.09Z"/><path class="ffc205d2-3543-4fd8-a8ec-cd6e1f78cd2c" d="M26,26.64l-.7-.61a2,2,0,0,1-.23-.42c1.21.58,1.49.55,1.87-.12l.76.12c0,.72-.13.86-.84.9a3.51,3.51,0,0,0-.88.33,1.36,1.36,0,0,0,0-.2"/><path class="ffc205d2-3543-4fd8-a8ec-cd6e1f78cd2c" d="M13.06,29.84c.07.23.08.45.2.52s.38.11.28-.21c0,0,0,0,0,0,.75.07,1.09-1.14,2-.59a5.53,5.53,0,0,1-.65.22,1,1,0,0,0-.85.78c-.15.6-.66.2-1,.35-.06-.19-.11-.35-.16-.48a4.23,4.23,0,0,1-.62,0s-.11-.16-.11-.25.06-.22.1-.23c.29,0,.58,0,.81-.05"/><path class="ffc205d2-3543-4fd8-a8ec-cd6e1f78cd2c" d="M22.13,11l.22-.29-1.1-.23v-.13l.77-.14.56-.74.18,0a8.65,8.65,0,0,1,.37,1.16c0,.13-.22.37-.39.43s-.37,0-.6-.09"/><path class="ffc205d2-3543-4fd8-a8ec-cd6e1f78cd2c" d="M14.82,16.25a7.79,7.79,0,0,1,1.08-.41.68.68,0,0,1,.54.17.92.92,0,0,0,1.12.49v.16c-.16.07-.32.13-.47.21a3.85,3.85,0,0,0-.34.26c-.1.08-.23.23-.31.21a.56.56,0,0,1-.34-.28c-.1-.27-.06-.71-.24-.82s-.59,0-.89.05l-.15,0"/><path class="ffc205d2-3543-4fd8-a8ec-cd6e1f78cd2c" d="M9.74,17.53l.35-.24c-.1-.05-.19-.14-.29-.14a3.06,3.06,0,0,0-.8,0,.8.8,0,0,1-1.06-.52c1,.6,1.79.05,2.71-.1,0,.21.07.41.1.56l-.51-.14c0,.06-.05.12-.07.19l.68.52c-.22.48-.58.45-1.11-.11Z"/><path class="ffc205d2-3543-4fd8-a8ec-cd6e1f78cd2c" d="M1.92,16.28l-.35-.44.11-.13,1.75.13s0,.07,0,.1l-.32.11.14.33a.49.49,0,0,1,0,.11,2.82,2.82,0,0,0-.53-.31,1.14,1.14,0,0,0-.52,0s0,.17-.11.22-.41.44-.63.46S1,16.64.79,16.46.71,16.18.67,16l1.24.4v-.12"/><path class="ffc205d2-3543-4fd8-a8ec-cd6e1f78cd2c" d="M27.55,27.36,26,28.7c0-.23,0-.32-.05-.37-.31-.39-.31-.39.16-.67a7.64,7.64,0,0,1,.83-.47,1.68,1.68,0,0,1,.55,0,1.42,1.42,0,0,0,.08.18"/><path class="ffc205d2-3543-4fd8-a8ec-cd6e1f78cd2c" d="M28.82,16c.77-.19,1,.25,1.41.77-.24.14-.48.41-.74.41s-.38-.34-.5-.56a2.29,2.29,0,0,1-.17-.62"/><path class="ffc205d2-3543-4fd8-a8ec-cd6e1f78cd2c" d="M14,28.8l.46.26c-.19.27-.38.38-.62,0,0,.17,0,.33.09.54H12.81v-.12l.67,0L13,29,13.6,29c0-.19.05-.39.08-.65l1.09.17a.34.34,0,0,1,0,.1l-.69.11L14,28.8"/><path class="ffc205d2-3543-4fd8-a8ec-cd6e1f78cd2c" d="M15.74,13.74,16,12.66l1.36.52,0,.14-1.44.57-.19-.15"/><path class="ffc205d2-3543-4fd8-a8ec-cd6e1f78cd2c" d="M.68,17.39l2.26.12a7.94,7.94,0,0,1-.86.57c-.08.05-.24-.06-.36-.1s-.42-.35-.66,0c0,.05-.27,0-.28,0-.05-.2-.07-.41-.1-.59"/><path class="ffc205d2-3543-4fd8-a8ec-cd6e1f78cd2c" d="M11,12.3A1.58,1.58,0,0,1,9,11.92l.51.07a.74.74,0,0,0,.33,0c.72-.34.72-.35,1.21.3"/><path class="ffc205d2-3543-4fd8-a8ec-cd6e1f78cd2c" d="M27.78,5.64l.48-.1-.18-.12V5.27c.32,0,.73-.06.94.1a.47.47,0,0,0,.74,0c.33-.35.43-.12.54.26a7,7,0,0,0-.93.11c-.34.07-.67.22-1,.26a1.71,1.71,0,0,1-.61-.15s0-.1,0-.16"/><path class="ffc205d2-3543-4fd8-a8ec-cd6e1f78cd2c" d="M6.12,18c-.27,0-.72-.59-.6-.82s.25-.19.29-.16c.31.25.68-.47,1,.07a.71.71,0,0,1-.65.91"/><path class="ffc205d2-3543-4fd8-a8ec-cd6e1f78cd2c" d="M25.49,19.92l.82-.46-.48-.21c.56.06,1.13-.47,1.74,0l-1.95.94-.13-.26"/><path class="ffc205d2-3543-4fd8-a8ec-cd6e1f78cd2c" d="M19.72,25.05l.35-.14-.38-.15.06-.18c.67.32,1.48.07,2.21.63-.83.47-1.5-.33-2.21,0l0-.17"/><path class="ffc205d2-3543-4fd8-a8ec-cd6e1f78cd2c" d="M10.38,10.94l-.93.55,0-.28H8.4c.06-.24.64-.35,0-.79l.32,0,.36.47c.32-.31.72-.27,1.3.07"/><path class="ffc205d2-3543-4fd8-a8ec-cd6e1f78cd2c" d="M28.08,22.11c-.73.42-.82-.45-1.28-.62l1.46-.28c-.07.38-.12.63-.18.9"/><path class="ffc205d2-3543-4fd8-a8ec-cd6e1f78cd2c" d="M16,26.61l-1.87-.85c.68-.18,1.24.69,1.7,0,.32.2.63.39,1,.57a1.21,1.21,0,0,0-.05.14l-.59-.14-.14.29"/><path class="ffc205d2-3543-4fd8-a8ec-cd6e1f78cd2c" d="M3.25,11.64c-.36.12-.66.82-1.1.18-.09-.12.07-.58.24-.67.49-.29.74,0,.86.49"/><path class="ffc205d2-3543-4fd8-a8ec-cd6e1f78cd2c" d="M29.19,26.64l-1.29.08c-.09-.27.3-1,.61-1,.52,0,.46.48.68.89"/><path class="ffc205d2-3543-4fd8-a8ec-cd6e1f78cd2c" d="M18.37,11.17l.78.17,0,.18H17.25c.22-.25,0-.84.64-.79.23,0,.6,0,.48.44"/><path class="ffc205d2-3543-4fd8-a8ec-cd6e1f78cd2c" d="M15.41,23.94l.16-.63a5,5,0,0,1,.85-.06c.15,0,.28.16.42.24-.13.15-.24.4-.39.43a5,5,0,0,1-1,0"/><path class="ffc205d2-3543-4fd8-a8ec-cd6e1f78cd2c" d="M13.44,15.7h1.1l-1.18.4.6.27-1.5.3a.76.76,0,0,1,0-.15l1-.82"/><path class="ffc205d2-3543-4fd8-a8ec-cd6e1f78cd2c" d="M12.48,21c.39-.51.79-.74,1.25-.48.13.08.16.34.28.65L12.48,21"/><path class="ffc205d2-3543-4fd8-a8ec-cd6e1f78cd2c" d="M2.91,2.13c-1.2.51-1.54.51-2,0Z"/><path class="ffc205d2-3543-4fd8-a8ec-cd6e1f78cd2c" d="M29.17,13c-.15.28-.27.49-.41.72l-1.18-.25a.3.3,0,0,0,0-.1l.8-.3-.16-.15,0-.09.93.17"/><path class="ffc205d2-3543-4fd8-a8ec-cd6e1f78cd2c" d="M21.82,19.53c-.44-.06-.88-.15-1.32-.18a7,7,0,0,1-1.43-.13,2.33,2.33,0,0,1,.37,0,5.34,5.34,0,0,0,1.07-.08c.5-.15.94-.22,1.31.43"/><path class="ffc205d2-3543-4fd8-a8ec-cd6e1f78cd2c" d="M12.84,27.6l.32.23c-.66.75-1.53.37-2.31.51l0-.2a2.36,2.36,0,0,1,.53-.1,6,6,0,0,0,.95,0c.2,0,.37-.28.56-.43"/><path class="ffc205d2-3543-4fd8-a8ec-cd6e1f78cd2c" d="M5.61,15c-.33.4-.62.58-1.08.36a2.71,2.71,0,0,0-.71-.14c.27-.42.4-.44,1.79-.22"/><path class="ffc205d2-3543-4fd8-a8ec-cd6e1f78cd2c" d="M22.1,18.91l-1.5-.39v-.11l1.58-.25c0,.26-.06.57-.08.75"/><path class="ffc205d2-3543-4fd8-a8ec-cd6e1f78cd2c" d="M11.8,12.84c-.08-.42-.15-.74-.23-1.16l1.28.14-1.1.73.54.37-.49-.08"/><path class="ffc205d2-3543-4fd8-a8ec-cd6e1f78cd2c" d="M28.41,20.43c-.27-.32-.5-.47-.53-.67A2,2,0,0,1,28,19c.18.09.51.17.52.28a5.81,5.81,0,0,1-.12,1.14"/><path class="ffc205d2-3543-4fd8-a8ec-cd6e1f78cd2c" d="M23,24.59c.13-.44.21-.73.34-1.18l.78,1.08-1.12.1"/><path class="ffc205d2-3543-4fd8-a8ec-cd6e1f78cd2c" d="M4.83,11.66c0,.05,0,.16.12.36l.24-.5.1,0c-.06.22-.13.62-.19.62A9.44,9.44,0,0,1,3.81,12a2.44,2.44,0,0,1,0-.27l1-.09"/><path class="ffc205d2-3543-4fd8-a8ec-cd6e1f78cd2c" d="M12.85,12.1c.55-.79.55-.79,1.15-.48-.11.19-.21.39-.34.62l-.81-.14"/><path class="ffc205d2-3543-4fd8-a8ec-cd6e1f78cd2c" d="M30.62,15.39l-1.42.37c.06-.39.09-.62.12-.8l1.26.28a.83.83,0,0,1,0,.15"/><path class="ffc205d2-3543-4fd8-a8ec-cd6e1f78cd2c" d="M24.79,25.69l.33,1.07-1-.38.48-.69h.22"/><path class="ffc205d2-3543-4fd8-a8ec-cd6e1f78cd2c" d="M29.38,17.94l.91.14a1,1,0,0,1,.07.15l-.49.2-.9.49.41-1"/><path class="ffc205d2-3543-4fd8-a8ec-cd6e1f78cd2c" d="M20.21,30.5a2.58,2.58,0,0,1-1.91-.19.61.61,0,0,1,0-.14l1.92.16a.88.88,0,0,0,0,.17"/><path class="ffc205d2-3543-4fd8-a8ec-cd6e1f78cd2c" d="M8.84,4.14c0-.31.08-.57.11-.8l1.44.48-1.55.32"/><path class="ffc205d2-3543-4fd8-a8ec-cd6e1f78cd2c" d="M4.33,3.53H2.58C3.09,3,3.09,3,3.76,3.32c.15.08.37,0,.56,0,0,.07,0,.13,0,.2"/><path class="ffc205d2-3543-4fd8-a8ec-cd6e1f78cd2c" d="M16.31,22c-.07.4-.11.66-.16,1l-.95-.19,0-.09.8-.21-.47-.13.82-.34"/><path class="ffc205d2-3543-4fd8-a8ec-cd6e1f78cd2c" d="M24.39,16.17h-.48c.19-1,.46-1.33,1.19-1.18a2.43,2.43,0,0,1-.46.33c-.43.16-.56.47-.25.85"/><path class="ffc205d2-3543-4fd8-a8ec-cd6e1f78cd2c" d="M24.7,11.18c0,.23,0,.37,0,.59l-1.34-.16,0-.16,1.29-.27"/><path class="ffc205d2-3543-4fd8-a8ec-cd6e1f78cd2c" d="M24.86,16.52c.48.06.8.08,1.11.14s.62.13.93.2V17l-.52-.07a2.65,2.65,0,0,0-.38-.05,4.73,4.73,0,0,1-.75,0c-.12,0-.22-.2-.39-.39"/><path class="ffc205d2-3543-4fd8-a8ec-cd6e1f78cd2c" d="M26.47,22.49l-1.21-.17-.06-.19c.13-.09.25-.25.39-.26.35,0,.67,0,.88.62"/><path class="ffc205d2-3543-4fd8-a8ec-cd6e1f78cd2c" d="M9.74,17.53c-.13.07-.26.12-.38.2a2.09,2.09,0,0,0-.29.23c0-.14,0-.27,0-.47l-.64.4c0-.21.08-.4.13-.7l1.2.34h0"/><path class="ffc205d2-3543-4fd8-a8ec-cd6e1f78cd2c" d="M3.13,14.16c.56-.55.75-.57,1.52,0Z"/><path class="ffc205d2-3543-4fd8-a8ec-cd6e1f78cd2c" d="M17.17,25c-.32.08-.64.18-1,.25-.07,0-.17-.07-.26-.11s.08-.24.15-.25c.34-.08.7-.12,1.05-.18l0,.29"/><path class="ffc205d2-3543-4fd8-a8ec-cd6e1f78cd2c" d="M23,30c0,.24.07.5.12.88L22,30.65c.39-.28.65-.46.94-.65"/><path class="ffc205d2-3543-4fd8-a8ec-cd6e1f78cd2c" d="M27.21,11.67c-.05-.15-.09-.3-.16-.55a5.91,5.91,0,0,0,.6.22c.15,0,.37.05.45,0,.32-.34.38,0,.56.16l-1.45.2"/><path class="ffc205d2-3543-4fd8-a8ec-cd6e1f78cd2c" d="M12.3,3.83l.77.39-.72.63-.12-.1c0-.27,0-.55.07-.92"/><path class="ffc205d2-3543-4fd8-a8ec-cd6e1f78cd2c" d="M30.59,6.94l-.92.47c0-.29,0-.49-.06-.76l.94.1c0,.06,0,.13,0,.19"/><path class="ffc205d2-3543-4fd8-a8ec-cd6e1f78cd2c" d="M26.37,14.9v.91l-.86.07,0-.15.63-.13-.31-.23.57-.47"/><path class="ffc205d2-3543-4fd8-a8ec-cd6e1f78cd2c" d="M25.08,24.33l.61.55c-.12.13-.25.25-.38.38l-.59-.51.36-.42"/><path class="ffc205d2-3543-4fd8-a8ec-cd6e1f78cd2c" d="M14.8,28.85h1.39c-.72.51-1.19.48-1.39,0"/><path class="ffc205d2-3543-4fd8-a8ec-cd6e1f78cd2c" d="M12.11,22.46c.51-.7.77-.72,1.1-.14l-1.1.14"/><path class="ffc205d2-3543-4fd8-a8ec-cd6e1f78cd2c" d="M19.2,21.49l-1.61.2,0-.24,1.61-.19,0,.23"/><path class="ffc205d2-3543-4fd8-a8ec-cd6e1f78cd2c" d="M21.5,24l.76.67a.65.65,0,0,0,0,.13l-1-.25L21.5,24"/><path class="ffc205d2-3543-4fd8-a8ec-cd6e1f78cd2c" d="M7.81,14.4c.41-.27.68-.17,1,.34-.26.22-.26.22-1-.34"/><path class="ffc205d2-3543-4fd8-a8ec-cd6e1f78cd2c" d="M.72,14.5V13.31h.1c0,.28.07.56.11.85l.69,0v.15l-.9.16"/><path class="ffc205d2-3543-4fd8-a8ec-cd6e1f78cd2c" d="M11.75,26.23a1.26,1.26,0,0,1,.29.12c.13.09.24.2.36.3a1.87,1.87,0,0,1-.5.14,2.35,2.35,0,0,1-.54-.11l.6-.14-.21-.31"/><path class="ffc205d2-3543-4fd8-a8ec-cd6e1f78cd2c" d="M23.89,19.85c.44-.59.72.13,1.1.12-.39.35-.73-.09-1.1-.12"/><path class="ffc205d2-3543-4fd8-a8ec-cd6e1f78cd2c" d="M12.12,2.76,11,2.59c.34-.1.76-.23,1.18-.34a.31.31,0,0,1,.23.09.17.17,0,0,1,0,.18,2.88,2.88,0,0,1-.23.24"/><path class="ffc205d2-3543-4fd8-a8ec-cd6e1f78cd2c" d="M16,27.84c-.48.29-.9.4-1.34,0Z"/><path class="ffc205d2-3543-4fd8-a8ec-cd6e1f78cd2c" d="M29,20.93c.07.45.12.82.18,1.2l-.19,0a.89.89,0,0,1,0-1.22"/><path class="ffc205d2-3543-4fd8-a8ec-cd6e1f78cd2c" d="M25.8,8.81l.78-.22v.57L25.75,9l.05-.16"/><path class="ffc205d2-3543-4fd8-a8ec-cd6e1f78cd2c" d="M20.32,29.42c.19-.34.41-.59,1-.15l-.9.36c0-.07-.05-.14-.07-.21"/><path class="ffc205d2-3543-4fd8-a8ec-cd6e1f78cd2c" d="M14,3.34c.28-.1.56-.21.85-.3,0,0,.17.08.16.1s-.07.24-.13.25c-.27.07-.55.1-.83.15l0-.2"/><path class="ffc205d2-3543-4fd8-a8ec-cd6e1f78cd2c" d="M30.47,21.12l-1-.4a.75.75,0,0,1-.07.12l-.18-.61,1.32.82-.05.07"/><path class="ffc205d2-3543-4fd8-a8ec-cd6e1f78cd2c" d="M8,10.76l-1-.09,0-.28,1,.13,0,.24"/><path class="ffc205d2-3543-4fd8-a8ec-cd6e1f78cd2c" d="M19.94,12.74l.21.55-1.08-.15a.31.31,0,0,0,0-.1l.88-.3"/><path class="ffc205d2-3543-4fd8-a8ec-cd6e1f78cd2c" d="M17.76,18.37c.41-.54.67-.45,1,0Z"/><path class="ffc205d2-3543-4fd8-a8ec-cd6e1f78cd2c" d="M22.3,21.58l-.81.4c.07-.32.07-.59.13-.61a2.38,2.38,0,0,1,.65,0Z"/><path class="ffc205d2-3543-4fd8-a8ec-cd6e1f78cd2c" d="M23.57,7.12l-.95.15a.82.82,0,0,1,.08-.4s.25,0,.37,0a3.28,3.28,0,0,1,.5.22"/><path class="ffc205d2-3543-4fd8-a8ec-cd6e1f78cd2c" d="M27.19,29l-.58.49-.16-.08c0-.21.05-.41.08-.62l.66.21"/><path class="ffc205d2-3543-4fd8-a8ec-cd6e1f78cd2c" d="M23.36,4.51a3,3,0,0,1,.28-.57A.55.55,0,0,1,24,3.77c.05,0,.13.09.19.14a2.13,2.13,0,0,1-.26.26l-.5.41-.05-.07"/><path class="ffc205d2-3543-4fd8-a8ec-cd6e1f78cd2c" d="M19.65,30l-1-.05c.12-.53.33-.5.63-.22.09.09.27.08.42.11,0,.05,0,.11,0,.16"/><path class="ffc205d2-3543-4fd8-a8ec-cd6e1f78cd2c" d="M9.88,15.24l-.46.26c-.06-.27-.11-.52-.16-.77l.12-.11.5.62"/><path class="ffc205d2-3543-4fd8-a8ec-cd6e1f78cd2c" d="M13.86,14.67H15l0,.09c-.35.08-.7.16-1,.22a2.16,2.16,0,0,1-.11-.31"/><path class="ffc205d2-3543-4fd8-a8ec-cd6e1f78cd2c" d="M23.37,19.93l-1-.09,0-.26,1,.15v.2"/><path class="ffc205d2-3543-4fd8-a8ec-cd6e1f78cd2c" d="M15.08,10.08l-.72.51-.24-.19c0-.24.73-.44,1-.32"/><path class="ffc205d2-3543-4fd8-a8ec-cd6e1f78cd2c" d="M23.37,22.33c0,.57,0,.6-.74.42l.74-.42"/><path class="ffc205d2-3543-4fd8-a8ec-cd6e1f78cd2c" d="M27,14.06l-1.39.12V14H27v.06"/><path class="ffc205d2-3543-4fd8-a8ec-cd6e1f78cd2c" d="M17.47,29.14l-.69-.05c.13-.17.25-.42.32-.41s.33.18.49.28l-.12.18"/><path class="ffc205d2-3543-4fd8-a8ec-cd6e1f78cd2c" d="M9.79,7.65,8.28,7.2l0-.17,1.5.51,0,.11"/><path class="ffc205d2-3543-4fd8-a8ec-cd6e1f78cd2c" d="M2.63,21.38l.29.31c-.54.45-1.06,0-1.55.15a1.09,1.09,0,0,1-.08-.15L1.86,21l.16.6.61-.24"/><path class="ffc205d2-3543-4fd8-a8ec-cd6e1f78cd2c" d="M25.05,28.48l-1.29.84c.3-.26-.32-.83.27-.92a4.43,4.43,0,0,1,1,.08Z"/><path class="ffc205d2-3543-4fd8-a8ec-cd6e1f78cd2c" d="M24.23,30.46c.2-.34.34-.57.54-.89l.43.7-1,.19"/><path class="ffc205d2-3543-4fd8-a8ec-cd6e1f78cd2c" d="M4.75,6.66l-.33-.07.63-.26C4.74,5.7,4.14,6,3.54,5.8l.88-.28c.61.65,1.41,0,2.11.32L5.7,6V6.1l.37.08c.17.37.33.73.52,1.18H3.16l-.05.16.78.34c-.36.26-.65.3-.82-.15l-1,.48c-.16-.69.19-.55.48-.48.37-.62.22-.82-.57-.89L3.23,6c.14.52.32.25.51-.18l.09.29-.56.52h.82l-.58.29c.63.4.72.38,1.24-.27"/><path class="ffc205d2-3543-4fd8-a8ec-cd6e1f78cd2c" d="M14.1,6.64l-1.5-.39a.45.45,0,0,0,0-.11l1.58-.25c0,.26-.07.57-.09.75"/><path class="ffc205d2-3543-4fd8-a8ec-cd6e1f78cd2c" d="M16.86,4.25c.49.06.81.08,1.12.14"/><path class="ffc205d2-3543-4fd8-a8ec-cd6e1f78cd2c" d="M19.37,4.17,19,4.1l.63-.26c-.31-.63-.91-.39-1.51-.53L19,3c.61.64,1.41,0,2.11.31l-.83.11V3.6l.38.08c.16.37.32.74.52,1.18H17.78L17.73,5l.78.34c-.36.26-.64.3-.82-.15l-1,.48c-.17-.69.18-.55.47-.48.37-.61.22-.82-.57-.89l1.24-.81c.14.52.32.25.51-.18l.09.29-.56.52h.82l-.57.29c.62.4.71.38,1.23-.26"/><path class="ffc205d2-3543-4fd8-a8ec-cd6e1f78cd2c" d="M28.72,4.14l-1.49-.39V3.64l1.58-.24c0,.26-.06.56-.09.74"/><path class="ffc205d2-3543-4fd8-a8ec-cd6e1f78cd2c" d="M27.67,5.47l.6-.24.16.59L29,5.16A1.09,1.09,0,0,1,28.93,5c-.5.13-1-.31-1.56.15l.3.31m1.92-1.59L29.38,4l.2.14-.38.45c.78.44.22,1.16.44,1.73l-.84-.07c.25.56,1,.74.7,1.37a5,5,0,0,1-.43.49,1.58,1.58,0,0,1-.6.34,9.94,9.94,0,0,1-1.24,0l.42-.55L26.07,6.05,26,6.21h-.91l-.86,0-1.06.14,0-.2.61,0a.66.66,0,0,1,0-.14,3.33,3.33,0,0,1-.94.06,2.05,2.05,0,0,1-.93-.54c.24-.07.52-.26.72-.2.74.22,1.15-.24,1.7-.67l-.46,0v-.1h1.12a.43.43,0,0,0,0,.11l-.79.29c.18.18.29.39.46.45.49.16.31.38.11.67.29-.11.74.17.81-.41,0,0,.2-.06.3,0l1.22.17c0-.06,0-.12.05-.18l-.68-.31c.41-.28.12-.83-.7-1.25A10.35,10.35,0,0,1,26.37,3a.55.55,0,0,0,0-.83c0-.35.05-.63.08-1-.66,0-1.29-.15-1.76.5l-.91-.46,0-.19L25.38.89c.2,0,.38-.07.57-.1,0-.05,0-.1,0-.15q.7.45,1.41.87l0,.12H27c-.06.25-.11.48-.17.75h.67a.93.93,0,0,0,0,.13l-.78.31.89.49c-.09.21-.18.45-.25.61.31,0,.57,0,.82,0a5.4,5.4,0,0,0,.69-.08l.62-.13c0,.06,0,.12,0,.18"/><path class="ffc205d2-3543-4fd8-a8ec-cd6e1f78cd2c" d="M20.09,8.26c-.42.09-.86.16-1.27.28-.05,0-.08.3,0,.43s.2.2.31.3l-.05.16a5.53,5.53,0,0,0-1.18-.3c-.39,0-.8.12-1.21.12.46-.28,1.24.11,1.34-.83l-.28-.24s.05-.09.07-.09c.44,0,.52-.16.27-.53S18,7,18.39,7a2.31,2.31,0,0,1,1.7.32Z"/><path class="ffc205d2-3543-4fd8-a8ec-cd6e1f78cd2c" d="M4.39,4.52c-.24-.2-.48-.4-.7-.61a2.78,2.78,0,0,1-.24-.41c1.22.57,1.49.55,1.87-.13l.77.12c0,.72-.14.86-.84.9a3.37,3.37,0,0,0-.88.33,1.5,1.5,0,0,1,0-.2"/><path class="ffc205d2-3543-4fd8-a8ec-cd6e1f78cd2c" d="M5.57,3l.23-.29L4.69,2.48V2.36l.76-.15L6,1.47l.18,0a8.72,8.72,0,0,1,.38,1.16c0,.13-.23.37-.39.43S5.8,3,5.57,3"/><path class="ffc205d2-3543-4fd8-a8ec-cd6e1f78cd2c" d="M12.58,8.79,11,10.13c0-.23,0-.32,0-.37-.3-.39-.31-.39.17-.67A6.68,6.68,0,0,1,12,8.62a1.68,1.68,0,0,1,.55,0l.08.18"/><path class="ffc205d2-3543-4fd8-a8ec-cd6e1f78cd2c" d="M1.37,2.47c.12-.44.2-.73.33-1.18l.78,1.09-1.11.09"/><path class="ffc205d2-3543-4fd8-a8ec-cd6e1f78cd2c" d="M3.43,2.22c.26.22.43.38.61.54l-.37.38-.6-.51.36-.41"/></svg>