<svg id="e8dcfad8-ffd6-428e-bc78-0ba7bdf31ba2" data-name="Capa 1" xmlns="http://www.w3.org/2000/svg" viewBox="0 0 108.13 38.89"><defs><style>.aae4bed5-aec3-4290-9fe4-2a501a7cf708{fill:#fff;}.f6d7ca51-ca45-4c5f-ae2c-be77fe0f4b24{fill:none;stroke:#000;stroke-miterlimit:10;stroke-width:0.34px;}</style></defs><polygon class="aae4bed5-aec3-4290-9fe4-2a501a7cf708" points="0.35 35.66 0.35 31.58 75.01 31.58 75.01 38.4 70.38 38.4 70.38 34.97 68.33 34.97 68.33 38.4 7.03 38.4 7.03 34.99 4.99 34.99 4.99 38.4 0.35 38.4 0.35 35.66"/><polygon class="f6d7ca51-ca45-4c5f-ae2c-be77fe0f4b24" points="0.35 35.66 0.35 31.58 75.01 31.58 75.01 38.4 70.38 38.4 70.38 34.97 68.33 34.97 68.33 38.4 7.03 38.4 7.03 34.99 4.99 34.99 4.99 38.4 0.35 38.4 0.35 35.66"/><polygon class="aae4bed5-aec3-4290-9fe4-2a501a7cf708" points="107.7 0.33 33.12 0.33 0.42 31.48 75.02 31.48 107.7 0.33"/><polygon class="f6d7ca51-ca45-4c5f-ae2c-be77fe0f4b24" points="107.7 0.33 33.12 0.33 0.42 31.48 75.02 31.48 107.7 0.33"/><polygon class="aae4bed5-aec3-4290-9fe4-2a501a7cf708" points="107.78 3.08 107.78 4.63 107.78 7.28 75.11 38.34 75.11 31.45 107.78 0.4 107.78 3.08"/><polygon class="f6d7ca51-ca45-4c5f-ae2c-be77fe0f4b24" points="107.78 3.08 107.78 4.63 107.78 7.28 75.11 38.34 75.11 31.45 107.78 0.4 107.78 3.08"/><polygon class="aae4bed5-aec3-4290-9fe4-2a501a7cf708" points="68.42 38.27 70.37 35.02 68.42 35.02 68.42 38.27"/><polygon class="f6d7ca51-ca45-4c5f-ae2c-be77fe0f4b24" points="68.42 38.27 70.37 35.02 68.42 35.02 68.42 38.27"/><polygon class="aae4bed5-aec3-4290-9fe4-2a501a7cf708" points="6.94 35.04 4.99 35.04 4.99 38.28 6.94 35.04"/><polygon class="f6d7ca51-ca45-4c5f-ae2c-be77fe0f4b24" points="6.94 35.04 4.99 35.04 4.99 38.28 6.94 35.04"/></svg>