<svg id="aebffceb-5228-41f4-b65a-e784d1bcde24" data-name="a6db8270-ed22-4396-ac5b-1eb5396661a2" xmlns="http://www.w3.org/2000/svg" viewBox="0 0 72 66.5"><defs><style>.ba4d3b78-8d8c-4d41-a1a1-5806bd66fbf9{fill:none;stroke:#000;stroke-miterlimit:10;stroke-width:0.25px;}</style></defs><line class="ba4d3b78-8d8c-4d41-a1a1-5806bd66fbf9" x1="71.9" y1="0.6" x2="37.9" y2="34.2"/><line class="ba4d3b78-8d8c-4d41-a1a1-5806bd66fbf9" x1="0.2" y1="34.2" x2="37.9" y2="34.2"/><line class="ba4d3b78-8d8c-4d41-a1a1-5806bd66fbf9" y1="66.4" x2="38" y2="66.4"/><line class="ba4d3b78-8d8c-4d41-a1a1-5806bd66fbf9" x1="71.9" y1="31.4" x2="38" y2="66.4"/><line class="ba4d3b78-8d8c-4d41-a1a1-5806bd66fbf9" x1="71.9" y1="16" x2="38" y2="50.2"/><line class="ba4d3b78-8d8c-4d41-a1a1-5806bd66fbf9" y1="50.2" x2="38" y2="50.2"/><line class="ba4d3b78-8d8c-4d41-a1a1-5806bd66fbf9" x1="37.9" y1="34.2" x2="38" y2="66.4"/><line class="ba4d3b78-8d8c-4d41-a1a1-5806bd66fbf9" x1="0.2" y1="34.2" x2="0.2" y2="66.4"/><line class="ba4d3b78-8d8c-4d41-a1a1-5806bd66fbf9" x1="55.3" y1="17" x2="55.3" y2="48.6"/><line class="ba4d3b78-8d8c-4d41-a1a1-5806bd66fbf9" x1="71.9" y1="0.6" x2="71.9" y2="31.4"/><line class="ba4d3b78-8d8c-4d41-a1a1-5806bd66fbf9" x1="71.9" y1="0.6" x2="71.2" y2="0.1"/><line class="ba4d3b78-8d8c-4d41-a1a1-5806bd66fbf9" x1="55.2" y1="17.1" x2="54.5" y2="16.6"/><line class="ba4d3b78-8d8c-4d41-a1a1-5806bd66fbf9" x1="38" y1="34.2" x2="37.5" y2="33.4"/><line class="ba4d3b78-8d8c-4d41-a1a1-5806bd66fbf9" x1="71.2" y1="0.1" x2="37.5" y2="33.4"/><path class="ba4d3b78-8d8c-4d41-a1a1-5806bd66fbf9" d="M1.6,33.4l-1.4.9Z"/><line class="ba4d3b78-8d8c-4d41-a1a1-5806bd66fbf9" x1="1.6" y1="33.4" x2="37.5" y2="33.4"/></svg>