<?xml version="1.0" encoding="utf-8"?>
<!-- Generator: Adobe Illustrator 26.0.3, SVG Export Plug-In . SVG Version: 6.00 Build 0)  -->
<svg version="1.1" id="b78a9e77-ab77-45e3-b72c-1a463ea97def"
	 xmlns="http://www.w3.org/2000/svg" xmlns:xlink="http://www.w3.org/1999/xlink" x="0px" y="0px" width="108.1px" height="57.8px"
	 viewBox="0 0 108.1 57.8" style="enable-background:new 0 0 108.1 57.8;" xml:space="preserve">
<style type="text/css">
	.st0{fill:none;}
	.st1{fill:none;stroke:#000000;stroke-width:0.34;stroke-miterlimit:10;}
</style>
<polygon class="st0" points="107.8,26.4 107.8,0.4 73.3,33.4 69.4,57.6 75.1,57.6 "/>
<polyline class="st1" points="69.4,57.6 75.1,57.6 107.8,26.4 107.8,0.4 "/>
<rect x="68.2" y="31.6" class="st0" width="6.8" height="26"/>
<polygon class="st1" points="71.8,34.7 75,31.6 75,57.6 68.2,57.6 68.2,38.2 "/>
<polygon class="st0" points="0.3,35.7 0.3,31.6 75,31.6 68.1,38.4 66.4,38.4 63.9,38.4 65,38.4 7,38.4 4.4,38.4 0.3,38.4 "/>
<polygon class="st1" points="0.3,35.7 0.3,31.6 75,31.6 68.1,38.4 66.4,38.4 63.9,38.4 65,38.4 7,38.4 4.4,38.4 0.3,38.4 "/>
<polygon class="st0" points="107.7,0.3 33.1,0.3 0.4,31.5 75,31.5 "/>
<polygon class="st1" points="107.7,0.3 33.1,0.3 0.4,31.5 75,31.5 "/>
</svg>
