<?xml version="1.0" encoding="utf-8"?>
<!-- Generator: Adobe Illustrator 26.0.3, SVG Export Plug-In . SVG Version: 6.00 Build 0)  -->
<svg version="1.1" id="bfc6a446-7a21-4b97-85b9-c98e3f357e6a"
	 xmlns="http://www.w3.org/2000/svg" xmlns:xlink="http://www.w3.org/1999/xlink" x="0px" y="0px" width="108.1px" height="57.8px"
	 viewBox="0 0 108.1 57.8" style="enable-background:new 0 0 108.1 57.8;" xml:space="preserve">
<style type="text/css">
	.st0{fill:none;}
	.st1{fill:none;stroke:#000000;stroke-width:0.34;stroke-miterlimit:10;}
	.st2{fill:none;stroke:#000000;stroke-width:0.292;stroke-miterlimit:10;}
</style>
<g>
	<polyline class="st0" points="66.2,57.5 71.9,57.5 104.6,26.4 104.6,10.3 	"/>
	<polyline class="st1" points="71.9,57.5 104.6,26.4 104.6,10.1 	"/>
	<rect x="64.7" y="38.3" class="st2" width="6.8" height="19.2"/>
	<polygon class="st0" points="0.3,35.6 0.3,31.5 75,31.5 75,38.3 70.4,38.3 68.3,38.3 68.3,38.3 7,38.3 4.4,38.3 0.3,38.3 	"/>
	<polygon class="st1" points="0.3,35.6 0.3,31.5 75,31.5 75,38.3 70.4,38.3 68.3,38.3 68.3,38.3 7,38.3 4.4,38.3 0.3,38.3 	"/>
	<polygon class="st0" points="107.7,0.2 33.1,0.2 0.4,31.4 75,31.4 	"/>
	<polygon class="st1" points="107.7,0.2 33.1,0.2 0.4,31.4 75,31.4 	"/>
	<polygon class="st0" points="107.8,3 107.8,4.5 107.8,7.2 75.1,38.3 75.1,31.4 107.8,0.3 	"/>
	<polygon class="st1" points="107.8,3 107.8,4.5 107.8,7.2 75.1,38.3 75.1,31.4 107.8,0.3 	"/>
</g>
</svg>
