<svg id="a66edd1a-8669-4821-b68b-3f017d0dd8e2" data-name="Capa 1" xmlns="http://www.w3.org/2000/svg" viewBox="0 0 108.06 57.71"><defs><style>.b86545ed-722f-469e-abca-f9e3682ee228{fill:#fff;}.a747c85e-3d1c-4188-bc5a-847f98a00a9d{fill:none;stroke:#000;stroke-miterlimit:10;stroke-width:0.34px;}</style></defs><polygon class="b86545ed-722f-469e-abca-f9e3682ee228" points="107.85 26.36 107.85 7.09 75.16 38.38 69.49 57.54 75.16 57.54 107.85 26.36"/><polygon class="a747c85e-3d1c-4188-bc5a-847f98a00a9d" points="107.85 26.36 107.85 7.09 75.16 38.38 69.49 57.54 75.16 57.54 107.85 26.36"/><path class="b86545ed-722f-469e-abca-f9e3682ee228" d="M107.85,7,75.12,38.3,67,31.38H.43L33.16.19h68S105.65-.15,107,2a9.35,9.35,0,0,1,.9,5.05"/><path class="a747c85e-3d1c-4188-bc5a-847f98a00a9d" d="M107.85,7,75.12,38.3,67,31.38H.43L33.16.19h68S105.65-.15,107,2A9.35,9.35,0,0,1,107.85,7Z"/><path class="b86545ed-722f-469e-abca-f9e3682ee228" d="M68.23,31.48V57.54h6.83V38.39s.34-4.29-2-5.64a10,10,0,0,0-4.82-1.27"/><path class="a747c85e-3d1c-4188-bc5a-847f98a00a9d" d="M68.23,31.48V57.54h6.83V38.39s.34-4.29-2-5.64a10,10,0,0,0-4.82-1.27"/><path class="b86545ed-722f-469e-abca-f9e3682ee228" d="M68.14,31.49H.35v6.84H75.06s.24-3.8-.88-5.09c-1.75-2-6-1.75-6-1.75"/><path class="a747c85e-3d1c-4188-bc5a-847f98a00a9d" d="M68.14,31.49H.35v6.84H75.06s.24-3.8-.88-5.09C72.43,31.23,68.14,31.49,68.14,31.49Z"/></svg>