<svg id="b78a9e77-ab77-45e3-b72c-1a463ea97def" data-name="Capa 1" xmlns="http://www.w3.org/2000/svg" viewBox="0 0 108.13 57.77"><defs><style>.fb2e4650-b07a-43de-82d8-71cc2927bdff{fill:#fff;}.aa19610f-f2a0-41f7-af0b-26276cd472df{fill:none;stroke:#000;stroke-miterlimit:10;stroke-width:0.34px;}</style></defs><polygon class="fb2e4650-b07a-43de-82d8-71cc2927bdff" points="107.78 26.45 107.78 0.4 73.28 33.38 69.44 57.6 75.11 57.6 107.78 26.45"/><polygon class="aa19610f-f2a0-41f7-af0b-26276cd472df" points="107.78 26.45 107.78 0.4 73.28 33.38 69.44 57.6 75.11 57.6 107.78 26.45"/><rect class="fb2e4650-b07a-43de-82d8-71cc2927bdff" x="68.19" y="31.58" width="6.83" height="26.03"/><rect class="aa19610f-f2a0-41f7-af0b-26276cd472df" x="68.19" y="31.58" width="6.83" height="26.03"/><polygon class="fb2e4650-b07a-43de-82d8-71cc2927bdff" points="0.35 35.66 0.35 31.58 75.01 31.58 68.1 38.4 66.44 38.4 63.87 38.4 65.02 38.4 7.03 38.4 4.39 38.4 0.35 38.4 0.35 35.66"/><polygon class="aa19610f-f2a0-41f7-af0b-26276cd472df" points="0.35 35.66 0.35 31.58 75.01 31.58 68.1 38.4 66.44 38.4 63.87 38.4 65.02 38.4 7.03 38.4 4.39 38.4 0.35 38.4 0.35 35.66"/><polygon class="fb2e4650-b07a-43de-82d8-71cc2927bdff" points="107.71 0.33 33.12 0.33 0.42 31.48 75.02 31.48 107.71 0.33"/><polygon class="aa19610f-f2a0-41f7-af0b-26276cd472df" points="107.71 0.33 33.12 0.33 0.42 31.48 75.02 31.48 107.71 0.33"/></svg>