<?xml version="1.0" encoding="utf-8"?>
<!-- Generator: Adobe Illustrator 26.0.3, SVG Export Plug-In . SVG Version: 6.00 Build 0)  -->
<svg version="1.1" id="a66edd1a-8669-4821-b68b-3f017d0dd8e2"
	 xmlns="http://www.w3.org/2000/svg" xmlns:xlink="http://www.w3.org/1999/xlink" x="0px" y="0px" width="108.1px" height="57.7px"
	 viewBox="0 0 108.1 57.7" style="enable-background:new 0 0 108.1 57.7;" xml:space="preserve">
<style type="text/css">
	.st0{fill:none;}
	.st1{fill:none;stroke:#000000;stroke-width:0.34;stroke-miterlimit:10;}
</style>
<polygon class="st0" points="107.8,26.4 107.8,7.1 75.2,38.4 69.5,57.5 75.2,57.5 "/>
<polyline class="st1" points="69.5,57.5 75.2,57.5 107.8,26.4 107.8,7.1 "/>
<path class="st0" d="M107.8,7L75.1,38.3L67,31.4H0.4L33.2,0.2h68c0,0,4.5-0.3,5.8,1.8C107.8,3.6,108.1,5.3,107.8,7"/>
<path class="st1" d="M0.4,31.4L33.2,0.2h68c0,0,4.5-0.3,5.8,1.8c0.7,1.6,1,3.3,0.8,5L75.1,38.3"/>
<path class="st0" d="M68.2,31.5v26.1h6.8V38.4c0,0,0.3-4.3-2-5.6C71.6,31.9,69.9,31.5,68.2,31.5"/>
<path class="st1" d="M68.2,31.5"/>
<path class="st1" d="M68.2,31.5v26.1h6.8V38.4"/>
<path class="st0" d="M68.1,31.5H0.3v6.8h74.7c0,0,0.2-3.8-0.9-5.1C72.4,31.2,68.2,31.5,68.1,31.5"/>
<path class="st1" d="M68.1,31.5H0.3v6.8h74.7c0,0,0.2-3.8-0.9-5.1C72.4,31.2,68.1,31.5,68.1,31.5z"/>
</svg>
