<svg id="bfc6a446-7a21-4b97-85b9-c98e3f357e6a" data-name="Capa 1" xmlns="http://www.w3.org/2000/svg" viewBox="0 0 108.13 57.77"><defs><style>.b1873a97-689a-4e58-9233-2602f8405ac5{fill:#fff;}.f74ebea0-39ac-4968-ae3b-178f50bfff2c{fill:none;stroke:#000;stroke-miterlimit:10;stroke-width:0.34px;}</style></defs><polygon class="b1873a97-689a-4e58-9233-2602f8405ac5" points="104.57 26.45 104.57 7.06 69.45 35.01 66.23 57.6 71.9 57.6 104.57 26.45"/><polygon class="f74ebea0-39ac-4968-ae3b-178f50bfff2c" points="104.57 26.45 104.57 7.06 69.45 35.01 66.23 57.6 71.9 57.6 104.57 26.45"/><rect class="b1873a97-689a-4e58-9233-2602f8405ac5" x="64.73" y="31.58" width="6.83" height="26.03"/><rect class="f74ebea0-39ac-4968-ae3b-178f50bfff2c" x="64.73" y="31.58" width="6.83" height="26.03"/><polygon class="b1873a97-689a-4e58-9233-2602f8405ac5" points="0.35 35.66 0.35 31.57 75.01 31.57 75.01 38.4 70.38 38.4 68.33 38.4 68.33 38.4 7.03 38.4 4.39 38.4 0.35 38.4 0.35 35.66"/><polygon class="f74ebea0-39ac-4968-ae3b-178f50bfff2c" points="0.35 35.66 0.35 31.57 75.01 31.57 75.01 38.4 70.38 38.4 68.33 38.4 68.33 38.4 7.03 38.4 4.39 38.4 0.35 38.4 0.35 35.66"/><polygon class="b1873a97-689a-4e58-9233-2602f8405ac5" points="107.71 0.33 33.12 0.33 0.42 31.48 75.02 31.48 107.71 0.33"/><polygon class="f74ebea0-39ac-4968-ae3b-178f50bfff2c" points="107.71 0.33 33.12 0.33 0.42 31.48 75.02 31.48 107.71 0.33"/><polygon class="b1873a97-689a-4e58-9233-2602f8405ac5" points="107.78 3.08 107.78 4.63 107.78 7.28 75.11 38.34 75.11 31.45 107.78 0.4 107.78 3.08"/><polygon class="f74ebea0-39ac-4968-ae3b-178f50bfff2c" points="107.78 3.08 107.78 4.63 107.78 7.28 75.11 38.34 75.11 31.45 107.78 0.4 107.78 3.08"/></svg>