<?xml version="1.0" encoding="utf-8"?>
<!-- Generator: Adobe Illustrator 26.0.3, SVG Export Plug-In . SVG Version: 6.00 Build 0)  -->
<svg version="1.1" id="fdde57b0-a63a-4188-8545-e63659fc031c"
	 xmlns="http://www.w3.org/2000/svg" xmlns:xlink="http://www.w3.org/1999/xlink" x="0px" y="0px" width="108.1px" height="21px"
	 viewBox="0 0 108.1 21" style="enable-background:new 0 0 108.1 21;" xml:space="preserve">
<style type="text/css">
	.st0{fill:none;}
	.st1{fill:none;stroke:#000000;stroke-width:0.34;stroke-miterlimit:10;}
</style>
<polygon class="st0" points="0.3,19.3 0.3,17.2 90.1,17.2 90.1,20.7 83.1,20.7 82,20.7 3.9,20.7 2.5,20.7 0.3,20.7 "/>
<polygon class="st1" points="0.3,19.3 0.3,17.2 90.1,17.2 90.1,20.7 83.1,20.7 82,20.7 3.9,20.7 2.5,20.7 0.3,20.7 "/>
<polygon class="st0" points="107.7,0.3 18.1,0.3 0.4,17 90.1,17 "/>
<polygon class="st1" points="107.7,0.3 18.1,0.3 0.4,17 90.1,17 "/>
<polygon class="st0" points="107.8,1.8 107.8,2.6 107.8,4.1 90.3,20.6 90.3,16.9 107.8,0.4 "/>
<polygon class="st1" points="107.8,1.8 107.8,2.6 107.8,4.1 90.3,20.6 90.3,16.9 107.8,0.4 "/>
<polygon class="st0" points="24.5,2.6 21.5,2.6 10.1,13.5 13.2,13.5 "/>
<path class="st1" d="M21.4,2.7v2.9 M24.4,2.7h-3l-11,10.7h2.9L24.4,2.7z"/>
<polygon class="st0" points="32.7,2.6 29.7,2.6 18.4,13.5 21.4,13.5 "/>
<path class="st1" d="M29.6,2.7v2.9 M32.6,2.7h-3l-11,10.7h3L32.6,2.7z"/>
<polygon class="st0" points="40.9,2.6 37.9,2.6 26.6,13.5 29.6,13.5 "/>
<path class="st1" d="M37.8,2.7v2.9 M40.7,2.7h-3l-11,10.7h3L40.7,2.7z"/>
<polygon class="st0" points="49.2,2.6 46.1,2.6 34.8,13.5 37.8,13.5 "/>
<path class="st1" d="M46,2.7v2.9 M49,2.7h-3L35,13.4h3L49,2.7z"/>
<polygon class="st0" points="57.4,2.6 54.3,2.6 43,13.5 46,13.5 "/>
<path class="st1" d="M54.2,2.7v2.9 M57.2,2.7h-3l-11,10.7h3L57.2,2.7z"/>
<polygon class="st0" points="65.6,2.6 62.5,2.6 51.2,13.5 54.2,13.5 "/>
<path class="st1" d="M62.4,2.7v2.9 M65.4,2.7h-2.9l-11,10.7h3L65.4,2.7z"/>
<polygon class="st0" points="73.8,2.6 70.8,2.6 59.4,13.5 62.5,13.5 "/>
<path class="st1" d="M70.7,2.7v2.9 M73.6,2.7h-2.9l-11,10.7h3L73.6,2.7z"/>
<polygon class="st0" points="82,2.6 79,2.6 67.7,13.5 70.7,13.5 "/>
<path class="st1" d="M78.9,2.7v2.9 M81.9,2.7h-3l-11,10.7h3L81.9,2.7z"/>
<polygon class="st0" points="90.2,2.6 87.2,2.6 75.8,13.5 78.9,13.5 "/>
<path class="st1" d="M87.1,2.7v2.9 M90.1,2.7h-3l-11,10.7h3L90.1,2.7z"/>
<polygon class="st0" points="98.5,2.6 95.4,2.6 84.1,13.5 87.1,13.5 "/>
<path class="st1" d="M95.3,2.7v2.9 M98.3,2.7h-3l-11,10.7h2.9L98.3,2.7z"/>
</svg>
