<svg id="fdde57b0-a63a-4188-8545-e63659fc031c" data-name="Capa 1" xmlns="http://www.w3.org/2000/svg" viewBox="0 0 108.13 21.02"><defs><style>.ba9a8f8d-1cb1-4aa5-ae58-7514cbe7d795{fill:#fff;}.a1e4b797-7220-410b-9e63-b8d18bc317aa{fill:none;stroke:#000;stroke-miterlimit:10;stroke-width:0.34px;}</style></defs><polygon class="ba9a8f8d-1cb1-4aa5-ae58-7514cbe7d795" points="0.3 19.3 0.3 17.16 90.13 17.16 90.13 20.74 83.1 20.74 81.99 20.74 3.91 20.74 2.48 20.74 0.3 20.74 0.3 19.3"/><polygon class="a1e4b797-7220-410b-9e63-b8d18bc317aa" points="0.3 19.3 0.3 17.16 90.13 17.16 90.13 20.74 83.1 20.74 81.99 20.74 3.91 20.74 2.48 20.74 0.3 20.74 0.3 19.3"/><polygon class="ba9a8f8d-1cb1-4aa5-ae58-7514cbe7d795" points="107.7 0.28 18.06 0.28 0.43 16.99 90.07 16.99 107.7 0.28"/><polygon class="a1e4b797-7220-410b-9e63-b8d18bc317aa" points="107.7 0.28 18.06 0.28 0.43 16.99 90.07 16.99 107.7 0.28"/><polygon class="ba9a8f8d-1cb1-4aa5-ae58-7514cbe7d795" points="107.83 1.82 107.83 2.65 107.83 4.07 90.3 20.63 90.3 16.95 107.83 0.4 107.83 1.82"/><polygon class="a1e4b797-7220-410b-9e63-b8d18bc317aa" points="107.83 1.82 107.83 2.65 107.83 4.07 90.3 20.63 90.3 16.95 107.83 0.4 107.83 1.82"/><polygon class="ba9a8f8d-1cb1-4aa5-ae58-7514cbe7d795" points="24.51 2.63 21.47 2.63 10.13 13.46 13.17 13.46 24.51 2.63"/><path class="a1e4b797-7220-410b-9e63-b8d18bc317aa" d="M21.35,2.72V5.61m3-2.89h-3l-11,10.66h2.95Z"/><polygon class="ba9a8f8d-1cb1-4aa5-ae58-7514cbe7d795" points="32.74 2.63 29.7 2.63 18.36 13.46 21.4 13.46 32.74 2.63"/><path class="a1e4b797-7220-410b-9e63-b8d18bc317aa" d="M29.58,2.72V5.61m3-2.89h-3l-11,10.66h3Z"/><polygon class="ba9a8f8d-1cb1-4aa5-ae58-7514cbe7d795" points="40.94 2.63 37.9 2.63 26.56 13.46 29.6 13.46 40.94 2.63"/><path class="a1e4b797-7220-410b-9e63-b8d18bc317aa" d="M37.78,2.72V5.61m2.95-2.89H37.78l-11,10.66h2.95Z"/><polygon class="ba9a8f8d-1cb1-4aa5-ae58-7514cbe7d795" points="49.16 2.63 46.12 2.63 34.78 13.46 37.82 13.46 49.16 2.63"/><path class="a1e4b797-7220-410b-9e63-b8d18bc317aa" d="M46,2.72V5.61m3-2.89H46L35,13.38h2.95Z"/><polygon class="ba9a8f8d-1cb1-4aa5-ae58-7514cbe7d795" points="57.38 2.63 54.34 2.63 43 13.46 46.05 13.46 57.38 2.63"/><path class="a1e4b797-7220-410b-9e63-b8d18bc317aa" d="M54.22,2.72V5.61m3-2.89h-3l-11,10.66h2.95Z"/><polygon class="ba9a8f8d-1cb1-4aa5-ae58-7514cbe7d795" points="65.59 2.63 62.55 2.63 51.2 13.46 54.25 13.46 65.59 2.63"/><path class="a1e4b797-7220-410b-9e63-b8d18bc317aa" d="M62.43,2.72V5.61m2.95-2.89H62.43l-11,10.66h3Z"/><polygon class="ba9a8f8d-1cb1-4aa5-ae58-7514cbe7d795" points="73.81 2.63 70.77 2.63 59.43 13.46 62.47 13.46 73.81 2.63"/><path class="a1e4b797-7220-410b-9e63-b8d18bc317aa" d="M70.65,2.72V5.61M73.6,2.72H70.65l-11,10.66h3Z"/><polygon class="ba9a8f8d-1cb1-4aa5-ae58-7514cbe7d795" points="82.03 2.63 78.99 2.63 67.65 13.46 70.69 13.46 82.03 2.63"/><path class="a1e4b797-7220-410b-9e63-b8d18bc317aa" d="M78.87,2.72V5.61m3-2.89h-3l-11,10.66h3Z"/><polygon class="ba9a8f8d-1cb1-4aa5-ae58-7514cbe7d795" points="90.23 2.63 87.19 2.63 75.85 13.46 78.89 13.46 90.23 2.63"/><path class="a1e4b797-7220-410b-9e63-b8d18bc317aa" d="M87.07,2.72V5.61m3-2.89h-3l-11,10.66h3Z"/><polygon class="ba9a8f8d-1cb1-4aa5-ae58-7514cbe7d795" points="98.46 2.63 95.42 2.63 84.08 13.46 87.12 13.46 98.46 2.63"/><path class="a1e4b797-7220-410b-9e63-b8d18bc317aa" d="M95.3,2.72V5.61m3-2.89h-3l-11,10.66h2.95Z"/></svg>