<svg id="a1ca7590-3d69-4131-bba6-8739aa5e2dfb" data-name="Capa 1" xmlns="http://www.w3.org/2000/svg" viewBox="0 0 108.13 49.04"><defs><style>.eeda8691-ec04-4b30-8ad6-94e981473e8b{fill:#bababa;}.b09149b0-2d8a-4913-bb78-1fed22a4263c{fill:#fff;}.aeed2742-4dd2-405e-acf1-a88ac264070a{fill:none;stroke:#000;stroke-miterlimit:10;stroke-width:0.34px;}</style></defs><path class="eeda8691-ec04-4b30-8ad6-94e981473e8b" d="M94.52,7.41l2.34,1.08c-.16.21-.15.22.06.37a.33.33,0,0,1,.11.19s-.06.1-.1.14a1.22,1.22,0,0,1-.17.15c0,.05.11.1.16.16s.11.12.11.18-.06.13-.11.19l-.14.12a.66.66,0,0,1,.15.14.47.47,0,0,1,.12.2c0,.05-.06.12-.11.17a.93.93,0,0,1-.15.13s.11.08.15.13a.57.57,0,0,1,.12.21c0,.06-.08.13-.13.18l-.14.11c0,.05.09.12.15.15s.15.12.1.21l-.44.25v0h-.8c0,.11.06.22.12.24a1.85,1.85,0,0,0,.52.16c.11,0,.15.07.15.18,0,.39,0,.78,0,1.17a.8.8,0,0,1,0,.15h0v-.53c-.07.61-.1,1.22-.16,1.83,0,.19,0,.4-.22.5v.59a1,1,0,0,0-.25-.06,9.91,9.91,0,0,0-2.9.69l-.2.09a12.42,12.42,0,0,1,2.11-.08c1,0,1.94,0,2.9,0,2,0,4,0,5.92.1a1.17,1.17,0,0,1,.46.13,3.68,3.68,0,0,1,.57-.06,8.05,8.05,0,0,0-1.8-.58c-.46-.1-.92-.18-1.39-.27a.85.85,0,0,0,0-.16c0-.17,0-.4-.08-.48a.46.46,0,0,1-.15-.36c0-.72-.07-1.43-.12-2.15,0-.07,0-.14,0-.2s0-.35.06-.38a1.12,1.12,0,0,1,.6-.19c.23,0,.26,0,.21-.24l-.68-.18a2.55,2.55,0,0,0-.32,0,1.33,1.33,0,0,0-.14-.2c-.05-.07-.14-.12-.16-.19s.1-.1.15-.16A.44.44,0,0,0,101,11s0-.08-.08-.11-.15-.13-.16-.21.1-.11.15-.17.11-.09.11-.14-.07-.09-.1-.14-.14-.13-.14-.19a.24.24,0,0,1,.14-.17c.11-.05.16-.11.13-.23l-.07,0c-.07-.07-.16-.12-.18-.2s.08-.16.17-.2.11-.1.1-.13a.79.79,0,0,0-.12-.15c0-.06-.14-.12-.13-.17a.26.26,0,0,1,.13-.19c.31-.15.63-.3,1-.43.54-.23,1.08-.46,1.63-.65.36-.12.34-.44.47-.69s-.11-.15-.11-.21c0-.29-.31-.22-.45-.35s-.27-.06-.42-.08c0-.22,0-.4,0-.58s-.06-.24-.23-.23l-.7,0c-.16,0-.21.08-.23.22s0,.34,0,.5l-.38,0c-.13,0-.29,0-.39-.12a.19.19,0,0,0-.18,0,.42.42,0,0,1-.56,0,.17.17,0,0,0-.15,0c-.2.15-.4,0-.6,0a1.59,1.59,0,0,0-.29,0,.66.66,0,0,1-.48,0c-.12,0-.19-.09-.29,0a.2.2,0,0,1-.18,0s-.07-.09-.07-.14,0,.2,0,0-.19-.42-.49-.46-.29,0-.29.28,0,.09,0,.45a2.13,2.13,0,0,1-.53-.11c-.12,0-.19-.06-.28,0A.22.22,0,0,1,96.24,6c0-.06,0-.11,0-.16s-.08-.25-.25-.23h-.39c-.39,0-.4,0-.44.4,0,.18-.19.28-.27.26a.58.58,0,0,0-.39,0,6.55,6.55,0,0,1-.67.18,2.71,2.71,0,0,1,.12.44c0,.34.1.31.42.46"/><path class="eeda8691-ec04-4b30-8ad6-94e981473e8b" d="M106.16,17.51s-3.3,0-7.36,0-7.35,0-7.35,0c0-.86,3.29-1.55,7.35-1.55s7.36.69,7.36,1.55"/><polygon class="eeda8691-ec04-4b30-8ad6-94e981473e8b" points="96.55 12.2 96.52 13.37 96.47 13.91 96.76 13.91 96.76 12.17 96.55 12.2"/><path class="eeda8691-ec04-4b30-8ad6-94e981473e8b" d="M59,38.94,61.31,40c-.16.2-.15.22.06.37a.27.27,0,0,1,.11.18c0,.05-.06.1-.1.15l-.16.15.15.15c.05.06.12.13.12.19s-.07.12-.12.18a.81.81,0,0,1-.14.12c.05,0,.11.09.15.14a.57.57,0,0,1,.12.21c0,.05-.06.12-.1.17l-.16.13a.93.93,0,0,1,.15.13c0,.06.12.14.12.21s-.07.12-.12.18-.1.07-.15.11.09.12.15.14.16.12.1.21l-.43.26v0h-.81c0,.11.06.22.12.24a3.24,3.24,0,0,0,.53.16A.15.15,0,0,1,61,44c0,.39,0,.78,0,1.17a.8.8,0,0,1,0,.15h0v-.54c-.07.61-.1,1.23-.16,1.84,0,.18,0,.4-.22.49v.59a.92.92,0,0,0-.25-.05,9.6,9.6,0,0,0-2.9.69l-.19.09a11.43,11.43,0,0,1,2.11-.08h2.9c2,0,3.94,0,5.91.1a1,1,0,0,1,.46.13,2.78,2.78,0,0,1,.57-.07,8.57,8.57,0,0,0-1.8-.57L66,47.66s0-.11,0-.16,0-.39-.09-.47a.47.47,0,0,1-.15-.37c0-.71-.07-1.43-.11-2.14,0-.07-.06-.14-.05-.21s0-.34.06-.37a1,1,0,0,1,.59-.19c.24,0,.26,0,.21-.24l-.68-.18a2.55,2.55,0,0,0-.32,0l-.13-.21c-.06-.06-.15-.11-.17-.18s.1-.11.15-.17a.31.31,0,0,0,.1-.15s0-.07-.08-.11-.14-.13-.16-.2.1-.12.15-.18.11-.09.12-.14-.07-.09-.11-.13-.13-.13-.14-.19a.28.28,0,0,1,.14-.18c.12,0,.17-.1.13-.23l-.07,0c-.06-.07-.15-.13-.18-.21s.09-.15.17-.2.11-.09.1-.12-.07-.1-.12-.16-.13-.11-.13-.16a.29.29,0,0,1,.13-.19c.31-.16.63-.3,1-.44.54-.22,1.07-.45,1.63-.64.35-.12.34-.44.46-.69s-.1-.15-.11-.21c0-.3-.31-.22-.45-.35s-.27-.06-.42-.09v-.58c0-.16-.06-.24-.22-.22s-.47,0-.71,0-.21.09-.22.23,0,.34,0,.49a2.69,2.69,0,0,1-.38,0c-.14,0-.3,0-.4-.12s-.13,0-.18,0a.42.42,0,0,1-.56,0,.17.17,0,0,0-.15,0c-.2.15-.39-.05-.6,0s-.18,0-.28,0a.82.82,0,0,1-.49,0c-.12,0-.18-.09-.29,0a.27.27,0,0,1-.18,0,.3.3,0,0,1-.07-.15c0-.18,0,.2,0,0s-.19-.41-.49-.45-.29,0-.29.27v.45a1.85,1.85,0,0,1-.53-.1c-.12-.05-.18-.06-.28,0a.22.22,0,0,1-.37-.12.44.44,0,0,1,0-.16c0-.17-.09-.24-.26-.23a2.44,2.44,0,0,1-.38,0c-.4,0-.41,0-.45.4,0,.18-.19.28-.27.26a.58.58,0,0,0-.39,0c-.21.07-.43.12-.67.18a2,2,0,0,1,.13.43c0,.34.1.32.41.47"/><path class="eeda8691-ec04-4b30-8ad6-94e981473e8b" d="M70.61,49s-3.29,0-7.36,0-7.35,0-7.35,0c0-.85,3.29-1.55,7.35-1.55s7.36.7,7.36,1.55"/><polygon class="eeda8691-ec04-4b30-8ad6-94e981473e8b" points="61 43.74 60.97 44.9 60.92 45.45 61.22 45.45 61.22 43.7 61 43.74"/><path class="eeda8691-ec04-4b30-8ad6-94e981473e8b" d="M7.24,38.94,9.58,40c-.16.2-.15.22.06.37a.31.31,0,0,1,.11.18c0,.05-.06.1-.1.15l-.17.15.16.15c0,.06.12.13.12.19s-.07.12-.12.18a.81.81,0,0,1-.14.12c.05,0,.11.09.15.14a.57.57,0,0,1,.12.21c0,.05-.06.12-.11.17a.93.93,0,0,1-.15.13.93.93,0,0,1,.15.13.5.5,0,0,1,.12.21c0,.06-.08.12-.12.18l-.15.11c.05.05.09.12.15.14s.16.12.1.21l-.44.26v0h-.8c.05.11.06.22.12.24a2.86,2.86,0,0,0,.52.16c.11,0,.15.07.15.17,0,.39,0,.78,0,1.17a.8.8,0,0,1,0,.15h0v-.54c-.07.61-.1,1.23-.16,1.84,0,.18,0,.4-.22.49v.59a.92.92,0,0,0-.25-.05,9.6,9.6,0,0,0-2.9.69l-.2.09a11.57,11.57,0,0,1,2.12-.08h2.89c2,0,4,0,5.92.1a1,1,0,0,1,.46.13,2.78,2.78,0,0,1,.57-.07,8.57,8.57,0,0,0-1.8-.57l-1.39-.28s0-.11,0-.16,0-.39-.09-.47a.47.47,0,0,1-.15-.37C14,46,14,45.23,14,44.52c0-.07-.06-.14,0-.21s0-.34.06-.37a1,1,0,0,1,.59-.19c.24,0,.26,0,.21-.24l-.68-.18a2.55,2.55,0,0,0-.32,0l-.13-.21c-.06-.06-.15-.11-.17-.18s.1-.11.15-.17a.31.31,0,0,0,.1-.15s-.05-.07-.08-.11-.15-.13-.16-.2.1-.12.15-.18.11-.09.11-.14-.06-.09-.1-.13-.13-.13-.14-.19a.28.28,0,0,1,.14-.18c.12,0,.17-.1.13-.23l-.07,0c-.06-.07-.15-.13-.18-.21s.09-.15.17-.2.11-.09.1-.12-.08-.1-.12-.16-.13-.11-.13-.16a.29.29,0,0,1,.13-.19c.31-.16.63-.3.95-.44.54-.22,1.08-.45,1.64-.64.35-.12.34-.44.46-.69s-.11-.15-.11-.21c0-.3-.31-.22-.45-.35s-.27-.06-.42-.09v-.58c0-.16-.06-.24-.22-.22s-.48,0-.71,0-.21.09-.22.23,0,.34-.05.49a2.69,2.69,0,0,1-.38,0c-.14,0-.3,0-.4-.12s-.13,0-.18,0a.42.42,0,0,1-.56,0,.17.17,0,0,0-.15,0c-.2.15-.4-.05-.6,0s-.18,0-.28,0a.82.82,0,0,1-.49,0c-.12,0-.18-.09-.29,0a.28.28,0,0,1-.18,0A.24.24,0,0,1,11,37.4c0-.18,0,.2,0,0s-.19-.41-.49-.45-.29,0-.29.27v.45a1.78,1.78,0,0,1-.53-.1c-.12-.05-.18-.06-.28,0A.22.22,0,0,1,9,37.5a.44.44,0,0,1,0-.16c0-.17-.09-.24-.26-.23a2.54,2.54,0,0,1-.39,0c-.39,0-.4,0-.44.4,0,.18-.19.28-.27.26a.58.58,0,0,0-.39,0c-.21.07-.44.12-.67.18a2.8,2.8,0,0,1,.13.43c0,.34.1.32.41.47"/><path class="eeda8691-ec04-4b30-8ad6-94e981473e8b" d="M18.88,49s-3.3,0-7.36,0-7.35,0-7.35,0c0-.85,3.29-1.55,7.35-1.55s7.36.7,7.36,1.55"/><polygon class="eeda8691-ec04-4b30-8ad6-94e981473e8b" points="9.27 43.74 9.24 44.9 9.19 45.45 9.48 45.45 9.48 43.7 9.27 43.74"/><polygon class="b09149b0-2d8a-4913-bb78-1fed22a4263c" points="0.35 35.66 0.35 31.57 75.01 31.57 75.01 38.4 70.38 38.4 70.38 38.4 68.33 38.4 7.03 38.4 4.39 38.4 0.35 38.4 0.35 35.66"/><polygon class="aeed2742-4dd2-405e-acf1-a88ac264070a" points="0.35 35.66 0.35 31.57 75.01 31.57 75.01 38.4 70.38 38.4 70.38 38.4 68.33 38.4 7.03 38.4 4.39 38.4 0.35 38.4 0.35 35.66"/><polygon class="b09149b0-2d8a-4913-bb78-1fed22a4263c" points="107.71 0.33 33.12 0.33 0.42 31.48 75.02 31.48 107.71 0.33"/><polygon class="aeed2742-4dd2-405e-acf1-a88ac264070a" points="107.71 0.33 33.12 0.33 0.42 31.48 75.02 31.48 107.71 0.33"/><polygon class="b09149b0-2d8a-4913-bb78-1fed22a4263c" points="107.78 3.08 107.78 4.63 107.78 7.28 75.11 38.34 75.11 31.45 107.78 0.4 107.78 3.08"/><polygon class="aeed2742-4dd2-405e-acf1-a88ac264070a" points="107.78 3.08 107.78 4.63 107.78 7.28 75.11 38.34 75.11 31.45 107.78 0.4 107.78 3.08"/></svg>