<?xml version="1.0" encoding="utf-8"?>
<!-- Generator: Adobe Illustrator 26.0.3, SVG Export Plug-In . SVG Version: 6.00 Build 0)  -->
<svg version="1.1" id="a1ca7590-3d69-4131-bba6-8739aa5e2dfb"
	 xmlns="http://www.w3.org/2000/svg" xmlns:xlink="http://www.w3.org/1999/xlink" x="0px" y="0px" width="108.1px" height="49px"
	 viewBox="0 0 108.1 49" style="enable-background:new 0 0 108.1 49;" xml:space="preserve">
<style type="text/css">
	.st0{fill:#BABABA;}
	.st1{fill:none;}
	.st2{fill:none;stroke:#000000;stroke-width:0.34;stroke-miterlimit:10;}
</style>
<path class="st0" d="M66,47.7c0,0,0-0.1,0-0.2c0,0,0-0.4-0.1-0.5c-0.1-0.1-0.2-0.2-0.2-0.4c0-0.7-0.1-1.4-0.1-2.1
	c0-0.1-0.1-0.1-0.1-0.2c0-0.1,0-0.3,0.1-0.4c0.2-0.1,0.4-0.2,0.6-0.2c0.2,0,0.3,0,0.2-0.2l-0.7-0.2c-0.1,0-0.2,0-0.3,0l-0.1-0.2
	c-0.1-0.1-0.2-0.1-0.2-0.2c0-0.1,0.1-0.1,0.2-0.2c0,0,0.1-0.1,0.1-0.1c0,0,0-0.1-0.1-0.1c-0.1,0-0.1-0.1-0.2-0.2
	c0-0.1,0.1-0.1,0.2-0.2s0.1-0.1,0.1-0.1c0-0.1-0.1-0.1-0.1-0.1c0,0-0.1-0.1-0.1-0.2c0-0.1,0.1-0.1,0.1-0.2c0.1,0,0.2-0.1,0.1-0.2
	h-0.1c-0.1-0.1-0.2-0.1-0.2-0.2c0-0.1,0.1-0.2,0.2-0.2s0.1-0.1,0.1-0.1c0,0-0.1-0.1-0.1-0.2s-0.1-0.1-0.1-0.2c0-0.1,0.1-0.1,0.1-0.2
	c0.3-0.2,0.6-0.3,1-0.4c0.5-0.2,1.1-0.5,1.6-0.6c0.3-0.1,0.3-0.4,0.5-0.7c0,0,0,0,0,0h-0.1h-9.8c0,0.3,0.1,0.3,0.4,0.5l0.1,0.1
	l2.3,1.1c-0.2,0.2-0.2,0.2,0.1,0.4c0.1,0,0.1,0.1,0.1,0.2c0,0-0.1,0.1-0.1,0.1l-0.2,0.2l0.1,0.1c0,0.1,0.1,0.1,0.1,0.2
	s-0.1,0.1-0.1,0.2c0,0-0.1,0.1-0.1,0.1c0.1,0,0.1,0.1,0.2,0.1c0.1,0.1,0.1,0.1,0.1,0.2c0,0-0.1,0.1-0.1,0.2l-0.2,0.1
	c0.1,0,0.1,0.1,0.2,0.1c0,0.1,0.1,0.1,0.1,0.2s-0.1,0.1-0.1,0.2s-0.1,0.1-0.2,0.1c0,0,0.1,0.1,0.2,0.1s0.2,0.1,0.1,0.2l-0.4,0.3
	h-0.8c0,0.1,0.1,0.2,0.1,0.2c0.2,0.1,0.3,0.1,0.5,0.2c0.1,0,0.1,0.1,0.1,0.2c0,0,0,0,0,0c0,0.3,0,0.5,0,0.8
	c-0.1,0.6-0.1,1.2-0.2,1.8c0,0.2,0,0.4-0.2,0.5v0.6c-0.1,0-0.2,0-0.2,0c-1,0.1-2,0.3-2.9,0.7l-0.2,0.1c0.7-0.1,1.4-0.1,2.1-0.1h2.9
	c2,0,3.9,0,5.9,0.1c0.2,0,0.3,0.1,0.5,0.1c0.2,0,0.4-0.1,0.6-0.1c-0.6-0.3-1.2-0.4-1.8-0.6L66,47.7z"/>
<path class="st0" d="M14.3,47.6c0,0,0-0.1,0-0.2s0-0.4-0.1-0.5c-0.1-0.1-0.2-0.2-0.2-0.4C14,46,14,45.2,14,44.5c0-0.1-0.1-0.1,0-0.2
	c0.1-0.1,0-0.3,0.1-0.4c0.2-0.1,0.4-0.2,0.6-0.2c0.2,0,0.3,0,0.2-0.2l-0.7-0.2c-0.1,0-0.2,0-0.3,0l-0.1-0.2
	c-0.1-0.1-0.1-0.1-0.2-0.2c0-0.1,0.1-0.1,0.2-0.2c0,0,0.1-0.1,0.1-0.1c0,0,0-0.1-0.1-0.1c0,0-0.1-0.1-0.2-0.2c0-0.1,0.1-0.1,0.1-0.2
	c0.1-0.1,0.1-0.1,0.1-0.1c0-0.1-0.1-0.1-0.1-0.1c0,0-0.1-0.1-0.1-0.2c0-0.1,0.1-0.1,0.1-0.2c0.1,0,0.2-0.1,0.1-0.2h-0.1
	c-0.1-0.1-0.1-0.1-0.2-0.2c0-0.1,0.1-0.2,0.2-0.2c0.1,0,0.1-0.1,0.1-0.1c0,0-0.1-0.1-0.1-0.2c0-0.1-0.1-0.1-0.1-0.2
	c0-0.1,0.1-0.1,0.1-0.2c0.3-0.2,0.6-0.3,1-0.4c0.5-0.2,1.1-0.5,1.6-0.6c0.4-0.1,0.3-0.4,0.5-0.7c0,0,0,0,0,0H7H6.7
	c0,0.3,0.1,0.3,0.4,0.5l0.1,0.1L9.6,40c-0.2,0.2-0.2,0.2,0.1,0.4c0.1,0,0.1,0.1,0.1,0.2c0,0-0.1,0.1-0.1,0.1l-0.2,0.2L9.6,41
	c0,0.1,0.1,0.1,0.1,0.2s-0.1,0.1-0.1,0.2c0,0-0.1,0.1-0.1,0.1c0,0,0.1,0.1,0.2,0.1c0.1,0.1,0.1,0.1,0.1,0.2c0,0-0.1,0.1-0.1,0.2
	c0,0-0.1,0.1-0.1,0.1c0.1,0,0.1,0.1,0.1,0.1c0.1,0.1,0.1,0.1,0.1,0.2c0,0.1-0.1,0.1-0.1,0.2l-0.1,0.1c0,0,0.1,0.1,0.1,0.1
	s0.2,0.1,0.1,0.2l-0.4,0.3H8.5c0,0.1,0.1,0.2,0.1,0.2c0.2,0.1,0.3,0.1,0.5,0.2c0.1,0,0.2,0.1,0.2,0.2c0,0.3,0,0.5,0,0.8
	c-0.1,0.6-0.1,1.2-0.2,1.8c0,0.2,0,0.4-0.2,0.5v0.6c-0.1,0-0.2,0-0.2,0c-1,0.1-2,0.3-2.9,0.7l-0.2,0.1c0.7-0.1,1.4-0.1,2.1-0.1h2.9
	c2,0,4,0,5.9,0.1c0.2,0,0.3,0.1,0.5,0.1c0.2,0,0.4-0.1,0.6-0.1c-0.6-0.3-1.2-0.4-1.8-0.6L14.3,47.6z"/>
<path class="st0" d="M98.8,16c-0.1,0-0.1,0-0.2,0L97,17.5c0.6,0,1.2,0,1.8,0c4.1,0,7.4,0,7.4,0C106.2,16.6,102.9,16,98.8,16z"/>
<path class="st1" d="M94.5,7.4l2.3,1.1c-0.2,0.2-0.2,0.2,0.1,0.4C97,8.9,97,9,97,9c0,0-0.1,0.1-0.1,0.1c-0.1,0.1-0.1,0.1-0.2,0.1
	c0,0.1,0.1,0.1,0.2,0.2S97,9.6,97,9.7S97,9.8,96.9,9.9L96.8,10c0.1,0,0.1,0.1,0.2,0.1c0.1,0.1,0.1,0.1,0.1,0.2
	c0,0.1-0.1,0.1-0.1,0.2c0,0-0.1,0.1-0.2,0.1c0,0,0.1,0.1,0.2,0.1c0.1,0.1,0.1,0.1,0.1,0.2c0,0.1-0.1,0.1-0.1,0.2l-0.1,0.1
	c0,0.1,0.1,0.1,0.2,0.1s0.2,0.1,0.1,0.2l-0.4,0.2l0,0h-0.8c0,0.1,0.1,0.2,0.1,0.2c0.2,0.1,0.3,0.1,0.5,0.2c0.1,0,0.2,0.1,0.2,0.2
	c0,0.4,0,0.8,0,1.2c0,0,0,0.1,0,0.1l0,0v-0.5c-0.1,0.6-0.1,1.2-0.2,1.8c0,0.2,0,0.4-0.2,0.5v0.6c-0.1,0-0.2-0.1-0.2-0.1
	c-1,0.1-2,0.3-2.9,0.7l-0.2,0.1c0.7-0.1,1.4-0.1,2.1-0.1c1,0,1.9,0,2.9,0c2,0,4,0,5.9,0.1c0.2,0,0.3,0.1,0.5,0.1
	c0.2,0,0.4-0.1,0.6-0.1c-0.6-0.3-1.2-0.5-1.8-0.6c-0.5-0.1-0.9-0.2-1.4-0.3c0-0.1,0-0.1,0-0.2c0-0.2,0-0.4-0.1-0.5
	c-0.1-0.1-0.2-0.2-0.2-0.4c0-0.7-0.1-1.4-0.1-2.2c0-0.1,0-0.1,0-0.2s0-0.4,0.1-0.4c0.2-0.1,0.4-0.2,0.6-0.2c0.2,0,0.3,0,0.2-0.2
	l-0.7-0.2c-0.1,0-0.2,0-0.3,0c0-0.1-0.1-0.1-0.1-0.2c-0.1-0.1-0.1-0.1-0.2-0.2s0.1-0.1,0.2-0.2c0-0.1,0-0.2,0-0.2c0,0,0-0.1-0.1-0.1
	s-0.2-0.1-0.2-0.2s0.1-0.1,0.2-0.2s0.1-0.1,0.1-0.1s-0.1-0.1-0.1-0.1s-0.1-0.1-0.1-0.2c0-0.1,0.1-0.1,0.1-0.2
	c0.1-0.1,0.2-0.1,0.1-0.2H101c-0.1-0.1-0.2-0.1-0.2-0.2s0.1-0.2,0.2-0.2s0.1-0.1,0.1-0.1c0-0.1-0.1-0.1-0.1-0.1
	c0-0.1-0.1-0.1-0.1-0.2c0-0.1,0.1-0.2,0.1-0.2c0.3-0.1,0.6-0.3,1-0.4c0.5-0.2,1.1-0.5,1.6-0.7c0.4-0.1,0.3-0.4,0.5-0.7
	s-0.1-0.2-0.1-0.2c0-0.3-0.3-0.2-0.4-0.3s-0.3-0.1-0.4-0.1c0-0.2,0-0.4,0-0.6s-0.1-0.2-0.2-0.2h-0.7c-0.2,0-0.2,0.1-0.2,0.2
	s0,0.3,0,0.5h-0.4c-0.1,0-0.3,0-0.4-0.1c-0.1,0-0.1,0-0.2,0c-0.2,0.1-0.4,0.1-0.6,0c0,0-0.1,0-0.2,0c-0.2,0.2-0.4,0-0.6,0
	c-0.1,0-0.2,0-0.3,0C99.2,6,99,6,98.9,6c-0.1,0-0.2-0.1-0.3,0c-0.1,0-0.1,0-0.2,0c0,0-0.1-0.1-0.1-0.1s0,0.2,0,0s-0.2-0.4-0.5-0.5
	s-0.3,0-0.3,0.3s0,0.1,0,0.4c-0.2,0-0.4-0.1-0.5-0.1c-0.1,0-0.2-0.1-0.3,0c0,0.1-0.1,0.3-0.3,0.3S96.2,6.1,96.2,6l0,0
	c0-0.1,0-0.1,0-0.2S96.2,5.6,96,5.6h-0.4c-0.4,0-0.4,0-0.4,0.4c0,0.2-0.2,0.3-0.3,0.3c-0.1,0-0.3,0-0.4,0c-0.2,0.1-0.4,0.1-0.7,0.2
	c0.1,0.1,0.1,0.3,0.1,0.4c0,0.3,0.1,0.3,0.4,0.5"/>
<polygon class="st1" points="96.6,12.2 96.5,13.4 96.5,13.9 96.8,13.9 96.8,12.2 "/>
<path class="st1" d="M70.6,49c0,0-3.3,0-7.4,0s-7.3,0-7.3,0c0-0.8,3.3-1.5,7.3-1.5S70.6,48.1,70.6,49"/>
<polygon class="st1" points="61,43.7 61,44.9 60.9,45.4 61.2,45.4 61.2,43.7 "/>
<path class="st1" d="M18.9,49c0,0-3.3,0-7.4,0s-7.3,0-7.3,0c0-0.8,3.3-1.5,7.3-1.5S18.9,48.1,18.9,49"/>
<polygon class="st1" points="9.3,43.7 9.2,44.9 9.2,45.4 9.5,45.4 9.5,43.7 "/>
<polygon class="st1" points="0.3,35.7 0.3,31.6 75,31.6 75,38.4 70.4,38.4 70.4,38.4 68.3,38.4 7,38.4 4.4,38.4 0.3,38.4 "/>
<polygon class="st2" points="0.3,35.7 0.3,31.6 75,31.6 75,38.4 70.4,38.4 70.4,38.4 68.3,38.4 7,38.4 4.4,38.4 0.3,38.4 "/>
<polygon class="st1" points="107.7,0.3 33.1,0.3 0.4,31.5 75,31.5 "/>
<polygon class="st2" points="107.7,0.3 33.1,0.3 0.4,31.5 75,31.5 "/>
<polygon class="st1" points="107.8,3.1 107.8,4.6 107.8,7.3 75.1,38.3 75.1,31.4 107.8,0.4 "/>
<polygon class="st2" points="107.8,3.1 107.8,4.6 107.8,7.3 75.1,38.3 75.1,31.4 107.8,0.4 "/>
</svg>
