<svg id="b1256494-afa0-46fc-8536-042a31ddf10b" data-name="Capa 1" xmlns="http://www.w3.org/2000/svg" viewBox="0 0 108.13 38.73"><defs><style>.a6008a9f-1d9e-4b33-a795-3313236ab9ff{fill:#fff;}.fb66e80c-6bfa-45aa-a3fa-ef351809f57c{fill:none;stroke:#000;stroke-miterlimit:10;stroke-width:0.34px;}</style></defs><polygon class="a6008a9f-1d9e-4b33-a795-3313236ab9ff" points="5.44 34.2 1.81 34.2 0.42 35.62 5.44 35.62 5.44 34.2"/><polygon class="fb66e80c-6bfa-45aa-a3fa-ef351809f57c" points="5.44 34.2 1.81 34.2 0.42 35.62 5.44 35.62 5.44 34.2"/><polygon class="a6008a9f-1d9e-4b33-a795-3313236ab9ff" points="75.01 38.4 0.35 38.4 0.35 35.66 4.39 35.66 4.39 34.16 0.35 34.16 0.35 31.57 75.01 31.57 75.01 38.4"/><polygon class="fb66e80c-6bfa-45aa-a3fa-ef351809f57c" points="75.01 38.4 0.35 38.4 0.35 35.66 4.39 35.66 4.39 34.16 0.35 34.16 0.35 31.57 75.01 31.57 75.01 38.4"/><polygon class="a6008a9f-1d9e-4b33-a795-3313236ab9ff" points="107.7 0.33 33.12 0.33 0.42 31.48 75.02 31.48 107.7 0.33"/><polygon class="fb66e80c-6bfa-45aa-a3fa-ef351809f57c" points="107.7 0.33 33.12 0.33 0.42 31.48 75.02 31.48 107.7 0.33"/><polygon class="a6008a9f-1d9e-4b33-a795-3313236ab9ff" points="107.78 7.28 75.11 38.34 75.11 31.45 107.78 0.4 107.78 3.08 105.86 4.92 106.44 5.89 107.78 4.63 107.78 7.28"/><polygon class="fb66e80c-6bfa-45aa-a3fa-ef351809f57c" points="107.78 7.28 75.11 38.34 75.11 31.45 107.78 0.4 107.78 3.08 105.86 4.92 106.44 5.89 107.78 4.63 107.78 7.28"/><rect class="a6008a9f-1d9e-4b33-a795-3313236ab9ff" x="4.4" y="34.19" width="69.94" height="1.42"/><rect class="fb66e80c-6bfa-45aa-a3fa-ef351809f57c" x="4.4" y="34.19" width="69.94" height="1.42"/><polygon class="a6008a9f-1d9e-4b33-a795-3313236ab9ff" points="107.7 4.59 75.09 35.62 71.07 35.62 71.07 34.1 75.09 34.1 106.08 4.61 107.7 4.59"/><polygon class="fb66e80c-6bfa-45aa-a3fa-ef351809f57c" points="107.7 4.59 75.09 35.62 71.07 35.62 71.07 34.1 75.09 34.1 106.08 4.61 107.7 4.59"/><rect class="a6008a9f-1d9e-4b33-a795-3313236ab9ff" x="4.44" y="33.23" width="66.5" height="2.89"/><line class="fb66e80c-6bfa-45aa-a3fa-ef351809f57c" x1="71.06" y1="35.63" x2="72.63" y2="34.18"/></svg>