<?xml version="1.0" encoding="utf-8"?>
<!-- Generator: Adobe Illustrator 26.0.3, SVG Export Plug-In . SVG Version: 6.00 Build 0)  -->
<svg version="1.1" id="b1256494-afa0-46fc-8536-042a31ddf10b"
	 xmlns="http://www.w3.org/2000/svg" xmlns:xlink="http://www.w3.org/1999/xlink" x="0px" y="0px" width="108.1px" height="38.7px"
	 viewBox="0 0 108.1 38.7" style="enable-background:new 0 0 108.1 38.7;" xml:space="preserve">
<style type="text/css">
	.st0{fill:none;stroke:#000000;stroke-width:0.34;stroke-miterlimit:10;}
	.st1{fill:none;}
</style>
<polygon class="st0" points="4.5,34.2 1.8,34.2 0.4,35.6 4.5,35.6 "/>
<polygon class="st1" points="75,38.4 0.3,38.4 0.3,35.7 0.3,34.2 0.3,31.6 75,31.6 "/>
<polyline class="st0" points="75,35.6 75,38.4 0.3,38.4 0.3,35.7 4.4,35.7 4.4,34.2 0.3,34.2 0.3,31.6 75,31.6 75,34.1 "/>
<polygon class="st1" points="107.7,0.3 33.1,0.3 0.4,31.5 75,31.5 "/>
<polygon class="st0" points="107.7,0.3 33.1,0.3 0.4,31.5 75,31.5 "/>
<polygon class="st1" points="107.8,7.3 75.1,38.3 75.1,31.4 107.8,0.4 107.8,3.1 105.9,4.9 106.4,5.9 107.8,4.6 "/>
<polygon class="st0" points="107.8,7.3 75.1,38.3 75.1,31.4 107.8,0.4 107.8,3.1 106.2,4.6 107.7,4.6 107.8,4.6 "/>
<polygon class="st1" points="107.7,4.6 75.1,35.6 71.1,35.6 71.1,34.1 75.1,34.1 106.1,4.6 "/>
<polygon class="st0" points="107.7,4.6 75.1,35.6 71.1,35.6 71.1,34.1 75.1,34.1 106.1,4.6 "/>
<line class="st0" x1="71.1" y1="35.6" x2="72.6" y2="34.2"/>
</svg>
