<svg id="b3c18a97-28f1-46e5-abc1-161c634b178f" data-name="Capa 1" xmlns="http://www.w3.org/2000/svg" viewBox="0 0 108.13 38.89"><defs><style>.afb7f8b0-ae7d-4e80-9b09-ada70638d75f{fill:#fff;}.f072b46f-0fd4-469d-a685-323d6ad18034{fill:none;stroke:#000;stroke-miterlimit:10;stroke-width:0.34px;}</style></defs><polygon class="afb7f8b0-ae7d-4e80-9b09-ada70638d75f" points="0.35 35.66 0.35 31.57 75.01 31.57 75.01 38.4 70.38 38.4 70.38 34.97 68.33 34.97 68.33 38.4 7.03 38.4 4.39 38.4 0.35 38.4 0.35 35.66"/><polygon class="f072b46f-0fd4-469d-a685-323d6ad18034" points="0.35 35.66 0.35 31.57 75.01 31.57 75.01 38.4 70.38 38.4 70.38 34.97 68.33 34.97 68.33 38.4 7.03 38.4 4.39 38.4 0.35 38.4 0.35 35.66"/><polygon class="afb7f8b0-ae7d-4e80-9b09-ada70638d75f" points="107.7 0.33 33.12 0.33 0.42 31.48 75.02 31.48 107.7 0.33"/><polygon class="f072b46f-0fd4-469d-a685-323d6ad18034" points="107.7 0.33 33.12 0.33 0.42 31.48 75.02 31.48 107.7 0.33"/><polygon class="afb7f8b0-ae7d-4e80-9b09-ada70638d75f" points="107.78 3.08 107.78 4.63 107.78 7.28 75.11 38.34 75.11 31.45 107.78 0.4 107.78 3.08"/><polygon class="f072b46f-0fd4-469d-a685-323d6ad18034" points="107.78 3.08 107.78 4.63 107.78 7.28 75.11 38.34 75.11 31.45 107.78 0.4 107.78 3.08"/><polygon class="afb7f8b0-ae7d-4e80-9b09-ada70638d75f" points="68.42 38.27 70.37 35.02 68.42 35.02 68.42 38.27"/><polygon class="f072b46f-0fd4-469d-a685-323d6ad18034" points="68.42 38.27 70.37 35.02 68.42 35.02 68.42 38.27"/></svg>