<?xml version="1.0" encoding="utf-8"?>
<!-- Generator: Adobe Illustrator 26.0.3, SVG Export Plug-In . SVG Version: 6.00 Build 0)  -->
<svg version="1.1" id="b3c18a97-28f1-46e5-abc1-161c634b178f"
	 xmlns="http://www.w3.org/2000/svg" xmlns:xlink="http://www.w3.org/1999/xlink" x="0px" y="0px" width="108.1px" height="38.9px"
	 viewBox="0 0 108.1 38.9" style="enable-background:new 0 0 108.1 38.9;" xml:space="preserve">
<style type="text/css">
	.st0{fill:none;}
	.st1{fill:none;stroke:#000000;stroke-width:0.34;stroke-miterlimit:10;}
</style>
<polygon class="st0" points="0.3,35.7 0.3,31.6 75,31.6 75,38.4 70.4,38.4 70.4,35 68.3,35 68.3,38.4 7,38.4 4.4,38.4 0.3,38.4 "/>
<polygon class="st1" points="0.3,35.7 0.3,31.6 75,31.6 75,38.4 70.4,38.4 70.4,35 68.3,35 68.3,38.4 7,38.4 4.4,38.4 0.3,38.4 "/>
<polygon class="st0" points="107.7,0.3 33.1,0.3 0.4,31.5 75,31.5 "/>
<polygon class="st1" points="107.7,0.3 33.1,0.3 0.4,31.5 75,31.5 "/>
<polygon class="st0" points="107.8,3.1 107.8,4.6 107.8,7.3 75.1,38.3 75.1,31.4 107.8,0.4 "/>
<polygon class="st1" points="107.8,3.1 107.8,4.6 107.8,7.3 75.1,38.3 75.1,31.4 107.8,0.4 "/>
<polygon class="st0" points="68.4,38.3 70.4,35 68.4,35 "/>
<polygon class="st1" points="68.4,38.3 70.4,35 68.4,35 "/>
</svg>
