<?xml version="1.0" encoding="utf-8"?>
<!-- Generator: Adobe Illustrator 26.0.3, SVG Export Plug-In . SVG Version: 6.00 Build 0)  -->
<svg version="1.1" id="SELECCION_xA0_Imagen_1_" xmlns="http://www.w3.org/2000/svg" xmlns:xlink="http://www.w3.org/1999/xlink"
x="0px" y="0px" width="460.8px" height="312px" viewBox="0 0 460.8 312" style="enable-background:new 0 0 460.8 312;"
xml:space="preserve">
<style type="text/css">
.st0{fill:none;stroke:#000000;stroke-width:0.3;stroke-miterlimit:10;}
.st1{fill:#000000;}
</style>
<line class="st0" x1="61.5" y1="96.8" x2="461" y2="2.9"/>
<line class="st0" x1="55.4" y1="106.3" x2="460.9" y2="14.4"/>
<line class="st0" x1="46.4" y1="120.8" x2="460.9" y2="32.3"/>
<line class="st0" x1="367" y1="64.9" x2="461.1" y2="45.8"/>
<line class="st0" x1="367.5" y1="84.5" x2="461.3" y2="66.8"/>
<line class="st0" x1="368" y1="98.6" x2="461.1" y2="82"/>
<line class="st0" x1="212" y1="96.5" x2="284.7" y2="81.6"/>
<line class="st0" x1="206.6" y1="114.7" x2="281.7" y2="100.6"/>
<line class="st0" x1="202.5" y1="128" x2="279.7" y2="114.5"/>
<line class="st0" x1="179.3" y1="103.1" x2="90.4" y2="121.2"/>
<line class="st0" x1="81.2" y1="138.5" x2="172.6" y2="121.2"/>
<line class="st0" x1="74.4" y1="150.8" x2="167.9" y2="134"/>
<line class="st0" x1="55.8" y1="128.3" x2="39.1" y2="132"/>
<line class="st0" x1="45.7" y1="145.1" x2="28.6" y2="148.5"/>
<line class="st0" x1="38.4" y1="157.2" x2="21.1" y2="160.2"/>
<line class="st0" x1="9" y1="178.9" x2="460.8" y2="106.6"/>
<line class="st0" x1="1.4" y1="191.3" x2="460.8" y2="123.3"/>
<line class="st0" x1="0" y1="211.6" x2="44.7" y2="205.9"/>
<line class="st0" x1="0" y1="225.8" x2="36.1" y2="221.7"/>
<path class="st0" d="M216.3,228.7"/>
<path class="st0" d="M0,247.5"/>
<line class="st0" x1="109.5" y1="197.8" x2="460.8" y2="153.6"/>
<line class="st0" x1="102.3" y1="214.6" x2="222.9" y2="201"/>
<line class="st0" x1="267.2" y1="196.1" x2="460.8" y2="174.9"/>
<line class="st0" x1="263" y1="224.6" x2="460.8" y2="207.1"/>
<line class="st0" x1="259.2" y1="248.8" x2="460.8" y2="235.5"/>
<line class="st0" x1="211" y1="251.9" x2="0" y2="266.1"/>
<line class="st0" x1="0" y1="294.4" x2="460.8" y2="277.9"/>
<line class="st0" x1="261.1" y1="312" x2="460.8" y2="309.8"/>
<path class="st1" d="M57.3,183l-33.9,62.5l68.2-6l28.1-65.7L57.3,183z M90.5,238.1l-48.4,4.4l24.8-48.2l45.8-6.4L90.5,238.1z"/>
<path class="st1" d="M62.5,117.4l-27.3,45.4l36.1-6.1l25.2-46.5L62.5,117.4z M70.9,155.6l-17.6,2.8L70.5,128l17-3.5L70.9,155.6z"/>
<path class="st1" d="M183.8,91.5l-18,48.8l34.6-5.9l15.2-49.7L183.8,91.5z M199.3,133.2l-25,4.3l13.7-38.8l23.5-4.8L199.3,133.2z"/>
<path class="st1" d="M366.3,52.5l-79.7,17l-7.6,51.2l89.2-15.4L366.3,52.5z M290,77.9l74.8-15.6l1.4,42.2l-82,13.9L290,77.9z"/>
<path class="st1" d="M225.3,190.6l-18.6,82.1l49.4-2.3l12.8-84.8L225.3,190.6z M254.1,267.9l0,0.2l-39.1,1.8l15.4-71.1l35.1-3.8
L254.1,267.9z"/>
<line class="st0" x1="0" y1="247.5" x2="216.3" y2="228.7"/>
</svg>